<?xml version="1.0" encoding="UTF-8" standalone="no"?>
<!-- Created with Inkscape (http://www.inkscape.org/) -->

<svg
   xmlns:dc="http://purl.org/dc/elements/1.1/"
   xmlns:cc="http://creativecommons.org/ns#"
   xmlns:rdf="http://www.w3.org/1999/02/22-rdf-syntax-ns#"
   xmlns:svg="http://www.w3.org/2000/svg"
   xmlns="http://www.w3.org/2000/svg"
   xmlns:xlink="http://www.w3.org/1999/xlink"
   xmlns:sodipodi="http://sodipodi.sourceforge.net/DTD/sodipodi-0.dtd"
   xmlns:inkscape="http://www.inkscape.org/namespaces/inkscape"
   width="86.919106mm"
   height="93.434769mm"
   viewBox="0 0 86.919106 93.434769"
   version="1.1"
   id="svg913"
   inkscape:version="0.92.4 (5da689c313, 2019-01-14)"
   sodipodi:docname="homunculus_svg.svg"
   inkscape:export-filename="C:\Users\abani\Desktop\Praca magisterska\praca\graphic\homunculus.png"
   inkscape:export-xdpi="350"
   inkscape:export-ydpi="350">
  <defs
     id="defs907" />
  <sodipodi:namedview
     id="base"
     pagecolor="#ffffff"
     bordercolor="#666666"
     borderopacity="1.0"
     inkscape:pageopacity="0.0"
     inkscape:pageshadow="2"
     inkscape:zoom="1.4"
     inkscape:cx="72.398125"
     inkscape:cy="147.38757"
     inkscape:document-units="mm"
     inkscape:current-layer="layer1"
     showgrid="false"
     inkscape:window-width="1920"
     inkscape:window-height="1017"
     inkscape:window-x="1912"
     inkscape:window-y="-8"
     inkscape:window-maximized="1" />
  <metadata
     id="metadata910">
    <rdf:RDF>
      <cc:Work
         rdf:about="">
        <dc:format>image/svg+xml</dc:format>
        <dc:type
           rdf:resource="http://purl.org/dc/dcmitype/StillImage" />
        <dc:title></dc:title>
      </cc:Work>
    </rdf:RDF>
  </metadata>
  <g
     inkscape:label="Layer 1"
     inkscape:groupmode="layer"
     id="layer1"
     transform="translate(-76.736876,-56.002858)">
    <path
       d="m 81.73249,122.55646 c 0,0 0.658989,-1.50213 1.685219,-2.09939 0,0 0.276225,-0.19896 0.812447,-0.55139 0,0 1.11125,-0.81879 2.168172,-0.81879 m -2.888191,4.4196 c 0,0 -0.198967,-1.01107 0.137936,-1.4859 0,0 0.398286,-0.53693 0.475192,-1.04246 0,0 0.537986,-1.1998 1.80975,-1.1998 m -0.262467,0.24977 c 0,0 0.332669,-0.23778 0.563739,-0.69251 0,0 0.238478,-0.64311 1.740958,-1.28622 0,0 0.470253,-0.22366 0.76447,-0.51753 0,0 0.980016,-0.78387 2.776361,-0.39193 m -1.078089,-0.10795 c 0,0 0.980017,-0.28364 1.404408,-0.51224 0,0 0.799747,-0.34325 2.221089,0.11395 0,0 1.599847,0.75106 2.138892,0.81633 m -2.138892,-0.81633 c 0,0 1.044575,-0.55563 2.106083,-0.0656 0,0 0.555273,0.27799 1.012473,0.27799 0,0 1.534936,-0.14711 1.240719,1.81257 m 0.01129,-0.80469 c 0,0 0.315383,-0.7627 1.148291,-0.66498 0,0 1.01212,-0.0822 0.86536,1.01247 m -0.0829,-0.63641 c 0,0 1.15253,-0.1718 1.48696,0.16298 m -0.38629,-0.16898 c 0,0 1.05657,-0.3884 2.29799,0.3302 m -1.40582,0.44239 c 0,0 0.40887,-0.1136 0.86607,-0.29352 0,0 0.87066,-0.53269 2.30823,0.6096 m -1.65171,1.06822 c 0,0 1.23719,-1.79212 2.67441,-0.68192 0,0 0.57185,0.45085 0.76094,0.7567 0,0 0.31468,0.46849 0.76412,0.63889 0,0 1.02588,0.53199 1.43087,1.26929 0,0 0.35948,0.50377 0.69215,0.69215 0,0 0.98072,0.80151 1.31374,2.33962 m -0.13441,-0.48965 c 0,0 0.88971,0.49777 1.24072,1.51483 0,0 0.13053,0.3556 0.35066,0.57573 0,0 0.63818,0.94403 0.83609,1.86196 0,0 0.12629,0.42263 0.33302,0.80116 0,0 0.83679,1.02552 0.36018,1.82597 0,0 -0.19826,0.24307 -0.0452,0.62089 m 0.19015,-1.22378 c 0,0 1.53247,2.6042 -0.33408,4.4711 m 0.3877,-0.46672 c 0,0 -0.19438,1.99319 -2.32022,2.15476 m 0.42545,-0.62547 c 0,0 0.10795,1.11654 -2.59362,0.88265 0,0 -2.46803,-0.0363 -3.0808,-0.36019 m 0.41451,-0.25223 c 0,0 -2.70263,1.71132 -4.79178,0.82867 m 0.32455,-0.66639 c 0,0 -0.45049,1.9819 -4.21569,1.62101 m 0.324203,-0.4505 c 0,0 -0.918633,1.51377 -3.260725,1.81998 m -0.342192,-1.26118 c 0,0 0.972961,1.15253 -0.198261,1.96357 0,0 -0.601487,0.66392 -1.008592,1.07138 0,0 -0.813153,1.14406 -2.226381,1.05481 0,0 -0.348191,-0.0109 -0.714375,0.12947 0,0 -1.420988,0.37641 -3.164769,-0.71015 m -6.257926,-19.40771 c 0,0 -1.440392,0.61807 -1.748719,1.63795 0,0 -0.07091,0.60395 -0.296334,0.82938 m 0.329142,-0.92463 c 0,0 -1.126067,0.56656 -1.611136,1.61148 0,0 -0.425803,0.78352 -0.828675,1.28165 0,0 -0.545395,0.99659 -0.213078,2.24119 m -0.103011,-0.66322 c 0,0 -0.833967,2.91677 0.695678,3.6636 m -0.825853,-1.12536 c 0,0 0.315736,2.9979 1.881011,3.33057 m -0.605014,-0.29668 c 0,0 0.154517,1.94451 2.632781,2.62078 0,0 0.349602,0.0536 0.604308,0.30798 0,0 1.233664,0.7239 2.751667,0.22577 m 4.468989,4.33247 c 0,0 -1.705681,0.9966 -2.77989,-0.44309 0,0 -0.144286,-0.17709 -0.376766,-0.53199 0,0 -0.19932,-0.55351 -0.33267,-0.6865 0,0 -1.051983,-0.89782 -0.9525,-1.94981 0,0 -0.14358,-1.15288 0.276931,-1.57374 0,0 0.343253,-0.54222 0.443089,-0.91899 0,0 0.177094,-0.32102 0.70873,-0.85301 0,0 2.207331,-2.35409 4.078112,-3.49427 0,0 0.73025,-0.55174 1.781175,-0.82056 0,0 1.396647,-0.30762 2.345266,-0.97402 0,0 1.562806,-1.03752 2.729442,-1.4866 0,0 1.819628,-0.67875 2.357967,-1.48625 0,0 0.230716,-0.35878 0.845956,-0.65405 0,0 1.58856,-0.98672 2.01825,-2.01789 0,0 0.36477,-1.22379 0.62124,-1.3776 m -24.284871,5.3153 c 0,0 0.51435,-0.3997 0.699911,-0.98601 0,0 0.728839,-1.72791 2.214386,-0.67098 m -0.168275,-0.10937 c 0,0 -0.200025,-1.27423 1.068564,-1.80551 m -2.357261,2.98591 c 0,0 1.928988,0.98636 1.77165,2.35796 m -1.328914,-2.8007 c 0,0 0.224366,0.51118 0.224366,0.87701 m 1.097139,1.55716 0.649817,0.36653 m 1.471789,1.41394 c 0,0 -0.01447,1.15746 1.228725,1.40017 m -4.043539,-0.48577 c 0,0 0.08608,1.4291 1.914878,1.20015 m -2.500489,0.75741 c 0,0 0.808919,0.15275 1.204383,-0.9592 m -4.033308,-2.81235 c 0,0 0.05715,1.19945 1.20015,1.81399 m -0.814211,1.51483 c 0,0 1.299633,0.28539 1.986139,0.28539 m 5.171722,-7.47254 c 0,0 0.292805,-0.56373 0.856897,0 m -1.056922,4.95794 c 0,0 0.357011,-0.15698 -0.585964,-0.98566 0,0 -2.357261,-1.42875 -1.743075,-3.37185 0,0 0.51435,-1.48554 1.971675,-1.48554 0,0 1.010355,-0.0727 1.010355,0.64205 m -0.888294,-3.40184 c 0,0 -0.180975,1.29435 1.196622,1.60303 m -0.435328,-0.15205 c 0,0 -0.166864,0.29492 -0.204611,0.74648 m 1.026584,-1.92617 c 0,0 -0.337609,-1.40864 0.477308,-2.22356 0,0 0.379236,-0.34396 0.503414,-0.56268 0,0 0.236714,-0.38523 0.693208,-0.6103 0,0 0.941917,-0.5207 1.356784,-1.08374 m -3.099506,3.82059 c 0,0 -0.242006,0.0998 -0.242006,0.46002 m 4.415014,-3.67983 c 0,0 -0.919691,0.91158 -0.652638,2.31634 0,0 -0.108303,0.27658 -1.069975,0.49354 0,0 -1.680986,0.57714 -1.32962,2.82681 m -1.027995,-0.61278 c 0,0 1.547637,-0.4639 1.702154,4.00403 0,0 -0.03034,1.87854 0.513997,2.77918 0,0 0.356305,0.4819 0.88018,0.88054 m -10.621433,-4.16349 c 0,0 -0.127353,0.49389 0.558447,1.17969 0,0 0.494595,0.41734 0.494595,0.9712 m -0.102306,0.17921 c 0,0 -0.221897,0.95462 0.621947,1.40617 m -1.960033,-1.87501 c 0,0 0.509058,0.56303 1.319742,0.90311 m -1.762831,-0.68121 c 0,0 0.276225,0.34078 0.726017,0.0423 m 10.157177,-6.22406 c 0,0 0.03387,0.54328 0.395817,0.74718 0,0 0.45332,0.28258 0.45332,0.91652 m 1.165577,-2.53541 c 0,0 0.679098,0.4639 0.679098,0.883 m -0.1016,-0.97296 v 0.6664 m -0.09066,-3.08857 c 0,0 1.403702,-1.65277 3.203222,-1.04176 0,0 1.474964,0.54328 1.350433,1.91312 m -3.353862,-2.89772 c 0,0 0.935919,0.37289 1.423811,0.86043 m 3.601861,2.86314 c 0,0 0.792339,-0.16933 0.950736,-0.16933 l 0.23742,-0.66781 m 1.143356,0.3055 c 0,0 0.55456,-0.30585 0.63394,-1.13206 m 1.64147,1.58503 c 0,0 1.43757,-0.86007 2.3996,0.29422 m 1.5621,1.4037 c 0,0 1.4037,0.30551 1.57339,1.95792 m -3.93947,-1.30175 c 0,0 0.3623,0.61136 -0.48648,1.72049 m 0.56268,-1.33526 c 0,0 0.16192,-0.19226 0.28645,-0.4191 m 2.61444,-1.64112 c 0,0 0.56585,0.40746 1.31304,0.99624 0,0 1.31339,0.94968 0.7246,1.91241 m -0.81774,-1.98579 c 0,0 1.25342,0.11819 1.62384,-0.59443 m -0.66075,1.95792 c 0,0 0.14852,0.4759 0.96379,0.98496 0,0 1.06397,0.86007 1.2901,1.5621 m -30.609817,7.56143 c 0,0 0.868186,0.0109 1.494366,0.35172 0,0 0.362656,0.17569 0.75812,0.37324 m -1.153584,0.28611 c 0,0 0.593372,-0.5387 1.395236,-0.23143 0,0 1.139825,0.45685 2.459567,-0.18309 m -1.470731,-1.12395 c 0,0 0.900995,-0.30797 1.735667,-0.0991 m -0.208492,0.20885 1.054806,-1.05516 m 0.659342,4.45029 c 0,0 -0.252942,-0.64805 0.494242,-1.39524 0,0 0.494594,-0.45085 0.549627,-0.74753 0,0 0.08784,-0.5274 0.384528,-0.60431 0,0 0.461433,-0.37289 0.461433,-0.99942 m -1.55328,2.52554 c 0,0 -0.92957,-0.30621 -1.775531,0.29809 m -4.6228,0.13476 c 0,0 1.161697,0.10725 1.6891,0.18415 0,0 1.204031,0.45509 1.76142,-0.28328 m 2.776714,2.96404 c 0,0 0.153458,0.19791 0.845608,0.39511 0,0 0.538339,8e-4 0.758119,0.38524 m -0.02187,-1.65912 c 0,0 0.03281,0.43956 -0.0441,0.71402 0,0 -0.211666,0.51118 -0.05609,0.7934 m 0.869596,-2.14489 c 0,0 -0.428272,-2.28529 4.142316,-3.23038 0,0 0.252942,-0.0773 0.4064,-0.42863 0,0 0.813153,-1.69192 3.306939,-2.08738 m -0.288219,0.0529 c 0,0 0.760941,-1.67923 2.452863,-1.95369 0,0 1.746955,-0.0229 2.768595,-1.33032 0,0 0.60467,-0.95603 1.49472,-1.50495 0,0 0.26388,-0.24201 0.34044,-0.61525 0,0 0.31855,-1.06539 2.02141,-1.90076 m -1.10948,0.31856 c 0,0 -0.22014,0.37147 -0.22014,0.59231 m -1.9117,1.34126 -0.0547,1.05657 m -3.04342,3.15207 c 0,0 0.59867,1.04916 1.19733,0.45014 m -0.83502,1.72544 c 0,0 0.34043,-1.03293 0.74683,0.10936 m -0.3803,-1.65735 v 1.1236 m 5.74252,1.95156 c 0,0 0.88971,0.0984 1.68099,-0.81315 m -0.43956,0.4064 v 1.09926 m 1.65946,-0.84632 c 0,0 0.14288,-0.67063 1.0989,-0.81315 m -1.28552,0.0332 c 0,0 0.34431,0.23601 0.34431,0.46955 m 0.98531,0.71684 c 0,0 1.05445,0.25259 1.35114,-0.94474 m -0.32561,0.64171 c 0,0 0.53481,-0.0815 0.72143,0.28116 m 0.91157,-1.70321 c 0,0 0.41769,0.49459 0.2092,0.96767 m -5.703,2.23555 c 0,0 1.87924,-0.0494 2.57175,-1.52188 m -0.4946,-2.75802 c 0,0 2.36185,-0.15416 1.84538,-2.4063 m 0.89041,-1.05445 c 0,0 1.48343,1.6697 0.69215,2.7245 m -0.19755,-0.0766 c 0,0 0.59302,0 0.8128,0.87877 m -0.38382,-1.49472 c 0,0 0.68544,0.043 0.72284,0.33267 m -2.11878,-4.15572 c 0,0 0.76482,0.78175 0.76482,2.17064 m -2.98415,-1.63231 c 0,0 0.83467,-0.0328 1.03258,0.6156 m -5.5813,0.98849 c 0,0 2.41689,-0.2854 2.43911,2.65923 m -1.25025,-2.44404 c 0,0 0.66781,0.1584 1.00824,-0.18239 m 0.39511,-0.56021 c 0,0 -0.13158,0.51612 0.37395,0.77999 m -2.84586,-0.58173 c 0,0 -0.14287,0.53834 -0.75283,0.75248 M 89.440271,141.0039 c 0,0 0.789164,-0.34078 1.296105,-0.6477 0,0 1.779059,-0.51858 2.085622,-2.27436 m -0.121355,0.45791 1.181453,-0.38665 m -4.194528,2.2031 c 0,0 0.261761,0.30092 0.684742,0.2032 m 0.129116,-0.0695 c 0,0 0.362656,-0.06 0.362656,0.36301 m 3.52425,-2.90019 c 0,0 0.860072,-0.35348 1.508125,-1.143 0,0 0.966258,-0.85901 1.508477,-1.07174 m -3.228622,0.98955 c 0,0 0.402167,0.7433 1.490839,0.33655 m 2.40912,-2.23309 c 0,0 0.153105,0.71896 3.452279,0.43604 0,0 0.77753,-0.11783 1.51977,-0.76624 l 1.75578,-1.50777 m -0.51859,-0.0236 h 0.87136 l -0.0589,0.87136 m 0.0589,-0.87136 0.55387,-0.67169 m -3.51755,2.75238 0.52493,0.2166 m -4.713111,0.16545 c 0,0 0.222956,-0.31256 0.459317,-0.31256 m -13.149085,-8.02076 c 0,0 0.69215,0.73025 0.896761,2.42182 0,0 0.01305,2.37067 2.050697,2.48603 m 4.962525,0.30374 c 0,0 0.40005,-0.0713 0.779639,-0.58491 0,0 0.410281,-0.59478 1.036108,-0.75882 0,0 0.943328,-0.33832 1.261534,-0.75883 M 91.091684,129.122 c 0,0 1.091142,-1.39382 1.250597,-3.02718 0,0 0.113948,-2.5901 1.742723,-3.97263 0,0 1.614663,-2.20416 5.011208,-3.75285 m -4.450997,6.74969 c 0,0 -0.369359,-1.11795 0.583494,-2.37313 0,0 0.613128,-0.56409 0.768703,-1.21568 m -1.419578,3.14149 -0.408869,0.54469 m 5.842705,-2.00201 c 0,0 -0.832203,-0.91193 0.34184,-2.08598 0,0 0.50165,-0.54716 1.01459,-0.44415 0,0 0.15981,-1.28834 1.41323,-1.12853 0,0 1.62948,0.0688 3.45334,0.98072 0,0 0.74119,0.28399 1.52718,0.37536 m -0.94192,-0.18945 0.48613,0.47449 m -11.443409,5.0606 c 0,0 0.387703,-0.15981 0.387703,-0.80963 0,0 0.06773,-2.59785 3.498497,-3.28753 m -3.564467,3.70169 v 0.87419 m -4.79813,1.95368 v 1.3208 m 3.134077,10.79253 c 0,0 1.057275,2.09479 2.930878,1.39735 m -1.125714,0.10407 c 0,0 -0.229305,1.78894 1.126067,3.6823 0,0 1.475317,2.61126 1.714147,3.34927 l 2.432051,-0.47872 c 0,0 -0.71755,-2.09303 -0.81703,-2.41124 m -4.126446,-4.10457 c 0,0 -0.199319,1.3134 0.797278,2.64866 0,0 0.777522,0.77752 1.255889,2.01365 l 0.995539,2.22639 m 8.95173,-12.6746 c 0,0 1.06928,0.86853 1.50778,1.03469 0,0 0.55562,0.14605 0.74083,0.57538 0,0 0.0928,0.2092 0.18521,0.30198 0,0 0.30198,0.3803 0.0487,0.97543 0,0 -0.29245,0.42827 -0.4385,1.03258 0,0 -0.0783,0.74189 -0.81915,1.35573 0,0 -0.22896,0.32632 -0.34079,0.4385 0,0 -0.39052,0.35101 -0.50729,0.63394 0,0 -0.14605,0.50659 -1.26683,1.37372 0,0 -1.54269,1.84961 -4.41325,2.53224 0,0 -0.26775,0.14781 -0.69285,-0.0818 0,0 -0.22084,-0.17004 -0.84949,-0.085 0,0 -1.75895,0.0928 -2.821164,-1.76777 0,0 -0.710142,-1.08197 -0.4826,-1.87008 0,0 0.127353,-0.4826 0.730603,-0.1277 0,0 0.127353,0.0783 0.432858,0.0783 M 96.94499,138.9455 c 0,0 0.437444,0.008 0.848783,0.59161 0,0 0.318911,0.63923 1.049867,1.06856 0,0 0.493536,0.34714 0.721783,0.49319 0,0 0.648057,0.59337 1.241777,0.21907 0,0 2.02353,1.71062 3.92783,2.01613 0,0 2.71709,0.3302 3.73309,0.3302 m -9.853433,-3.20887 c 0,0 -1.871133,0.69074 -1.002241,1.67287 0,0 0.25788,0.50412 1.249186,0.40111 0,0 0.585258,0.0296 0.892527,-0.41593 0,0 0.507291,-0.65369 0.799391,-0.65369 m -1.762827,3.06246 1.549397,4.58294 m -0.24094,-3.00461 0.85372,2.88431 m -0.46285,-7.55086 c 0,0 0.54363,0.90312 3.79095,2.46204 0,0 0.41452,0.21484 0.65758,0.34325 0,0 0.95144,0.59867 2.25672,0.59867 m -6.9215,-3.25261 c 0,0 -0.14111,1.56703 5.06518,2.55411 0,0 1.37548,0.21061 2.57599,0.0194 m -8.161163,-2.04541 c 0,0 -0.107598,1.06716 1.480253,1.83974 0,0 0.74366,0.60043 1.15817,1.01564 0,0 1.23261,1.22838 2.26836,1.42205 m -3.77296,-3.2138 c 0,0 1.89125,2.16465 4.02238,3.10833 m -2.63737,-2.51001 c 0,0 0.9211,1.94521 3.30271,2.1844 m -2.48497,-2.02848 c 0,0 0.51435,1.17193 2.74073,1.88454 m -2.19146,-1.82774 c 0,0 0.64911,1.11337 2.68358,1.51906 m -2.10043,-1.49119 c 0,0 0.5147,0.94862 2.48179,1.21991 m -7.189261,-2.8889 c 0,0 -0.185561,0.64629 0.548221,1.0033 0,0 0.79833,0.54575 1.35643,1.10349 0,0 1.73319,1.98084 2.5975,2.17029 m 5.01403,-3.72005 c -3.34716,0.68686 -5.54108,-0.68721 -5.54108,-0.68721 -1.65065,-0.20355 -2.2606,-1.21884 -2.2606,-1.21884 0,0 1.1684,0.8636 4.44429,0.66004 0,0 0.8128,-0.0251 1.5748,-0.58384 m -3.75849,1.14264 c 0,0 2.3114,-0.12735 4.77449,-0.73624 m -2.66665,1.06609 c 0,0 2.52872,0.23848 3.70241,-0.0332 m -2.45815,-0.24342 c 0,0 1.016,0.0988 2.43804,-0.43427 m -7.94843,-0.83785 c 0,0 0.12664,0.0762 2.00589,-0.15275 0,0 1.59985,-0.40569 2.74285,0.0257 0,0 1.26929,0.3048 1.80269,0.45685 0,0 1.30034,0.50376 1.99602,0.50376 m -7.45808,-0.88406 c 0,0 1.27001,0.73731 3.97581,0 m -6.788855,2.0066 c 0,0 0.06032,0.36725 0.783875,1.09115 0,0 1.33314,1.18074 1.5748,1.42169 0,0 0.75882,0.75565 1.58573,1.29187 m -4.208635,-3.77296 c 0,0 0.0194,0.5895 1.200505,1.77095 0,0 0.48224,0.57397 1.77764,1.77694 m -1.57444,-1.92969 c 0,0 0.89676,0.9472 1.76918,2.12442 m -2.942521,-3.16865 c 0,0 1.004361,1.85279 2.234491,3.08328 m -0.87771,-0.14005 c 0,0 -0.2854,-0.73166 -1.09749,-1.5434 0,0 -0.730603,-0.49883 -0.597605,-2.0821 m -0.253295,-0.0385 c 0,0 -0.487891,0.84561 1.38747,3.42548 m -1.619245,-3.5045 c 0,0 -0.212019,1.03787 0.676275,2.55482 m -2.00413,-6.16691 c 0,0 0.245886,-0.11501 0.451908,-0.61842 m 0.07514,1.25624 c 0,0 0.143933,-0.883 0.613833,-1.3529 0,0 0.316794,-0.3175 0.602897,-0.60325 m -0.718255,2.49343 c 0,0 -0.126295,-0.98848 0.216605,-1.66158 0,0 0.386997,-0.54928 0.660753,-0.82303 m -0.601839,2.68957 c 0,0 0.201436,-1.30739 1.032933,-2.0193 0,0 0.610305,-0.4138 0.806805,-0.70872 m -2.08386,1.44462 c 0,0 1.02623,-1.02588 1.397,-1.39771 m -0.740128,2.96299 c 0,0 -0.06526,-0.95498 0.747183,-1.56422 0,0 0.507995,-0.53305 0.660395,-0.9144 0,0 0.23637,-0.42581 0.90206,-0.72214 m -5.535438,1.6189 c 0,0 0.340078,0.18062 1.383947,-0.16263 m 2.270125,2.03341 c 0,0 -0.01093,-1.1931 1.334906,-2.2091 0,0 0.92358,-1.03293 1.67605,-1.44744 0,0 0.46532,-0.2533 0.94368,-0.38065 m -0.66463,0.76165 c -0.17745,0.17815 -0.38065,0.43215 -0.38065,0.43215 -0.26917,0.37289 -1.2446,1.57374 -1.2446,1.57374 -1.05375,1.0541 -0.80504,1.61114 -0.80504,1.61114 0,0 4.39562,-4.39596 3.87738,-4.3434 -0.51787,0.0522 -1.44709,0.72637 -1.44709,0.72637 -0.48225,0.2286 -1.5741,1.0922 -1.5741,1.0922 -1.879595,1.47249 -1.349017,2.41864 -1.349017,2.41864 0,0 -0.02787,0.25894 0.03881,0.52846 0,0 0.138287,2.15689 4.548717,2.15689 m -2.65324,-4.98122 c 0,0 1.19238,-0.80821 2.63983,-1.21496 0,0 1.95827,-0.44768 2.5901,-0.9144 0,0 0.53692,-0.33761 0.6611,-0.46179 m -5.62292,1.82986 c 0,0 -1.68981,1.51095 -1.46262,2.22991 m 2.09268,-1.47673 c 0,0 1.20861,-0.34325 2.12266,-0.7747 0,0 1.1176,-0.6604 2.33645,-0.9144 0,0 1.18956,-0.56374 1.59561,-0.6544 m -6.70701,3.06034 c 0,0 0.7687,-0.42545 2.11455,-1.00929 0,0 1.2954,-0.3556 1.8542,-0.635 0,0 1.58785,-0.62724 2.3361,-0.889 l 0.84314,-0.19086 m -2.06834,0.64735 c 0,0 0.91087,0.22543 2.35091,-0.44556 m -8.73584,4.09328 c 0,0 0.39794,-0.67557 1.50284,-1.29787 0,0 0.26634,-0.3937 1.89159,-0.5969 0,0 0.68545,-0.20284 1.59985,-0.68544 0,0 2.6e-4,-0.0508 1.2446,-0.2032 0,0 0.78705,-0.22896 1.29505,-0.4826 0,0 0.3048,-0.1524 1.59984,-0.1524 m 0.22155,-0.30904 c 0,0 -0.34855,0.99484 -1.84679,1.37584 0,0 -0.95674,0.15204 -2.13325,0.15204 0,0 -0.7366,0.0765 -2.0574,0.66076 0,0 -1.58186,0.54363 -1.9551,1.1684 m 1.03999,-0.0868 c 0,0 0.99166,-0.92957 3.04871,-1.41182 0,0 1.06645,-0.1524 2.13325,-0.1524 0,0 1.73108,-0.26247 2.21791,-1.48343 m -5.49698,1.98296 c 0,0 0.48542,-0.0427 2.41582,0.66816 0,0 1.37089,0.5588 2.56469,-0.12664 0,0 0.57997,-0.22084 0.80504,-0.44627 m -4.63973,-0.44238 c 0,0 1.6323,0.65511 3.30165,0.0251 0,0 1.0107,-0.65546 1.44497,-1.08938 m -3.14677,1.80057 c 0,0 1.76247,-0.18273 2.90018,-0.18273 m -1.81257,-0.35031 c 0,0 0.95391,0.25717 2.28212,-0.53164 m -6.26322,1.55399 c 0,0 1.08268,-0.50377 1.7212,-0.50377 m 1.22273,0.75071 c 0,0 1.4598,0.44627 2.4063,0.44627 m 0.38312,-0.89183 c 0,0 -0.47837,0.47096 -1.16417,0.47096 m -11.920008,0.14358 c 0,0 -0.281516,0.78246 0.441325,0.97367 m -0.307269,-1.10737 c 0,0 0.06562,0.49812 0.281869,0.49812 m 0.216253,-0.83008 c 0,0 0.05045,0.56338 0.265995,0.77928 m 0.514702,-0.66922 c 0,0 0,0.44097 0,0.74577 m 0.481895,-0.41804 -0.151695,-0.10124 c 0,0 0.185209,0.63464 -0.362655,0.77293 m 0.217664,0.19262 c 0,0 0.662516,-0.24554 0.413103,-0.77788"
       style="fill:none;stroke:#231f20;stroke-width:0.1760361;stroke-linecap:butt;stroke-linejoin:miter;stroke-miterlimit:4;stroke-dasharray:none;stroke-opacity:1"
       id="path506"
       inkscape:connector-curvature="0" />
    <path
       d="m 84.709581,76.190168 -0.1524,7.883879 m 0.152753,-9.102726 c 0,0 -0.01905,-6.950428 1.561394,-8.530872 m 0.647348,-0.685448 c 0,0 1.676047,-1.218494 4.418189,-1.485194 m 16.222485,0.61595 c 1.10878,0.200378 2.19992,0.448733 3.2385,0.754944 m -7.92409,-1.34373 c 1.16769,0.09172 2.36819,0.221544 3.55988,0.402166 M 99.181937,64.11776 c 0.831853,0.01764 1.712033,0.0508 2.621493,0.105128 m -5.820835,-0.101953 c 0.756356,-0.01693 1.618192,-0.02505 2.553053,-0.01376 m -5.751689,0.16263 c 0,0 0.912636,-0.07691 2.396067,-0.126294 M 111.7119,65.9455 c 0,0 9.04522,2.342091 13.93895,7.236177 m 14.5408,15.503526 c 0.33584,0.611362 0.63323,1.22061 0.88371,1.824919 m -2.2472,-4.025549 c 0.34361,0.50165 0.66746,1.005772 0.96767,1.510597 m -3.11009,-4.338815 c 0.56938,0.690033 1.12007,1.395942 1.63618,2.10961 m -3.97369,-4.754032 c 0.53552,0.570441 1.07104,1.161344 1.59562,1.76777 m -3.7465,-3.958168 c 0.53269,0.519995 1.08021,1.069623 1.6316,1.643239 M 129.6577,76.44699 c 0.58914,0.528109 1.23896,1.125714 1.92299,1.779059 m -4.86304,-4.282723 c 0,0 0.87736,0.691445 2.21121,1.858434 m 12.5469,15.108765 c 0,0 1.58044,3.10374 1.99919,4.817534 m 0.4191,1.0668 c 0,0 0.6858,1.408993 1.06645,2.742141 m 0.38064,1.06645 c 0,0 2.43734,7.04567 2.43734,15.615 m 0.15276,1.5621 c 0,0 0.0377,4.34128 -0.49495,6.24558 m -0.5334,1.29575 c 0,0 -0.2286,2.36114 -1.44709,4.53178 m -0.38136,1.3716 c 0,0 -2.78024,3.35139 -4.79848,4.03684"
       style="fill:none;stroke:#231f20;stroke-width:0.5284611;stroke-linecap:butt;stroke-linejoin:miter;stroke-miterlimit:4;stroke-dasharray:none;stroke-opacity:1"
       id="path508"
       inkscape:connector-curvature="0" />
    <path
       d="m 112.09642,60.592099 c -0.32702,0 -0.90946,0.145344 -0.90946,0.145344 -0.78246,0.455083 -1.54657,0.327731 -1.54657,0.327731 -1.76495,-0.127353 -2.52872,0.27305 -2.52872,0.27305 -0.69144,0.691444 -1.49189,-0.07302 -1.49189,-0.07302 -0.65476,-0.800806 -1.87396,-0.89147 -1.87396,-0.89147 -0.83679,-0.145344 -1.32785,-0.764116 -1.32785,-0.764116 -0.44591,-0.445559 -1.41923,-1.055159 -1.41923,-1.055159 -2.63807,-1.419225 -6.495342,-0.291041 -6.495342,-0.291041 -2.274358,0.963789 -5.076472,-1.273881 -5.076472,-1.273881 -1.327503,-1.12783 -2.6924,-0.818091 -2.6924,-0.818091 -2.765425,1.054805 -2.419703,2.656063 -2.419703,2.656063 0.345369,1.018823 -0.254706,1.146175 -0.254706,1.146175 -1.200855,0.582436 -1.128183,2.856442 -1.128183,2.856442 0.109361,2.128661 -1.637594,2.492375 -1.637594,2.492375 -1.109839,0.418041 -1.237192,2.492728 -1.237192,2.492728 -0.159455,2.108905 -0.494242,3.418769 -0.863247,4.230864 0,0 -0.298803,0.699205 -1.375128,1.169811 0,0 -1.614311,0.511527 -0.645936,2.233083 0,0 1.332089,1.749072 1.668286,3.242028 0,0 0.416983,1.170869 0.416983,1.641475 0,0 0.188384,1.143 0.363362,0.201436 m 31.838542,-19.39608 c 0,0 3.51085,-3.020483 5.84024,-3.69323 0,0 1.50953,-0.455084 3.82058,-0.09102 0,0 7.51417,0.40005 9.73385,2.237669 0,0 1.12748,0.528108 2.07363,2.874786 0,0 0.50976,1.091847 1.67392,1.964972 M 79.488118,80.90081 c 0,0 -0.122062,0.992011 0.577144,0.992011 0,0 0.712964,0.09384 0.188383,-1.385711 m -0.0635,1.370188 c 0,0 -0.03069,0.459317 0.521053,0.513645 0,0 0.282222,0.05327 0.282222,-0.659695 0,0 0.04057,-0.847019 -0.161219,-1.331736 m 0.110772,1.754364 c 0,0 0.21202,0.518583 0.709789,0.330906 0,0 0.605014,-0.161573 0.255411,-0.820914 l -0.524228,-1.156406 m 0.6096,1.669345 c 0,0 0.392642,0.328083 0.694972,0.0254 0,0 0.430742,-0.295981 0,-0.726017 0,0 -0.531283,-0.841022 -0.645583,-0.955322 m 0.831145,1.27635 c 0,0 0.823383,0.230011 0.917927,-0.536575 0,0 0.201436,-0.753181 -0.4572,-0.753181 0,0 -1.579033,-0.490008 -2.180872,-1.514475 0,0 -0.173566,-0.396169 -0.173566,-0.907344 0,0 -0.06738,-0.56515 -0.242359,-1.129947 0,0 3.44e-4,-0.83432 -0.282222,-1.332089 0,0 -0.349603,-0.941564 0,-1.492956 0,0 1.926872,-5.902677 3.51543,-7.491588 0,0 0.231775,-0.348192 0.612423,-0.451203 0,0 0.950736,-0.475898 0.998361,-1.54552 0,0 0.503766,-1.431572 1.188508,-2.116666 0,0 0.892175,-0.844198 0.892175,-2.835628 m -4.59105,20.721461 c 0,0 -0.20955,0.98425 0.73272,0.788811 m -5.236281,-8.427155 c 0,0 -0.378883,1.148644 -0.0762,1.451327 m 9.014884,-13.183658 c 0,0 3.095977,-0.530578 4.139141,0.512939 0,0 0.174978,0.222955 0.493536,0.222955 0,0 0.549628,-0.07161 1.401939,0.780698 0,0 1.800578,1.211086 6.101997,0.366536 0,0 2.29623,-0.384528 3.17288,-0.384528 m -4.861627,0.05009 c 0,0 0.652992,-1.051278 1.242836,-1.290814 m -0.652992,1.067859 0.302684,-0.302684 m 0.828322,-3.058936 c 0,0 1.405117,-0.333728 2.136417,0.103717 m -1.06891,2.509308 c 0,0 1.32221,-0.0321 2.19851,1.067506 0,0 0.30268,0.445911 1.57727,0.223308 0,0 1.14723,-0.271286 1.7847,0.557036 0,0 0.52494,0.78105 2.32551,-0.0949 0,0 1.57763,-0.621947 3.07516,-0.494242 m -0.94156,0.0067 c 0,0 0.049,0.566914 1.64183,0.981075 0,0 2.6924,0.334081 6.99417,3.616326 0,0 5.16185,3.473097 7.28098,4.604808 0,0 4.12609,2.532944 5.09799,3.966633 0,0 0.73272,1.450269 3.09069,1.211086 m -9.12812,-7.96572 c 0,0 0.84384,0.796572 1.73637,1.975203 0,0 0.82797,1.131358 2.83563,1.449564 0,0 1.24283,0.08008 2.56504,0.876652 m -0.68227,-0.356305 c 0,0 0.15663,0.9144 1.5427,1.933575 0,0 0.84419,0.780697 1.29046,2.214386 0,0 0.39828,0.956028 1.19486,1.561394 m 0.63711,0.206728 c 0,0 2.13501,1.975908 3.36197,4.795663 0,0 0.25471,0.334785 -0.1598,0.605719 0,0 -0.42969,0.732718 -2.45322,-2.581277 0,0 -1.92793,-2.930877 -1.32256,-3.026833 0,0 0.23883,-0.127353 0.57361,0.206728 z m 3.36197,4.795663 c 0,0 2.34174,-0.52564 1.8475,-4.333171 0,0 -0.14322,-2.644423 -1.32256,-4.731456 0,0 -1.13065,-1.863725 -2.21439,-2.325864 0,0 -1.01952,-0.159102 -1.89547,-1.927577 0,0 -0.68545,-0.877006 -0.68545,-1.497895 0,0 -0.35031,-1.290108 -0.86007,-2.198158 0,0 -0.51012,-1.035756 -0.51012,-1.529644 M 117.31648,65.04591 c 0,0 1.6838,1.033639 2.36714,1.883834 0,0 0.98389,1.166988 3.26778,1.717322 0,0 2.91323,0.997655 3.59022,1.490839 m -10.14201,-5.742164 0.45014,0.449792 m -1.41605,-4.951236 c 0,0 1.32786,-0.140053 2.79541,-0.769056 0,0 3.52955,-1.537053 6.32425,0.192264 0,0 1.36278,0.769056 2.32375,1.048456 0,0 3.75602,1.100666 4.92689,3.860799 0,0 0.28822,1.004711 0.57679,1.293284 m -9.71373,-7.530041 c 0,0 1.38006,0.576792 1.92158,0.786342 0,0 0.33196,0.122413 0.57679,0.122413 0,0 0.45403,0.05256 1.44992,0.6985 0,0 4.54272,2.428875 8.47619,7.342364 m 6.78039,11.209867 c 0,0 5.72064,0.642408 6.17361,-1.493309 0,0 0.37218,-1.44145 0.66145,-1.73108 0,0 1.0601,-2.236611 -0.77152,-3.798358 0,0 -1.79317,-2.121253 -3.14325,-2.314223 m -0.90629,-0.636058 c 1.71627,1.0795 1.09891,1.986139 1.09891,1.986139 -0.53975,1.735667 -3.1623,0 -3.1623,0 -2.41053,-0.887236 -1.63901,-2.873375 -1.63901,-2.873375 0,0 0.21555,-0.825853 1.30704,-0.274108 z m -1.81751,-0.881239 c 0,0 0.91581,0.190853 1.42135,-0.705203 m -8.58556,-7.736416 c 0,0 -0.7119,2.421466 1.70956,2.563989 0,0 3.03919,0.474486 2.84904,-1.0922 0,0 0.0949,-1.424164 -2.68288,-1.68522 0,0 -1.79035,-0.283986 -1.87572,0.213431 z m 1.14971,2.477911 c 0,0 -0.72673,0.703439 0,2.056694 0,0 0.2039,0.949325 2.53047,0.949325 0,0 3.53766,0.569736 2.94358,-1.377244 0,0 -0.53481,-1.427339 -2.56999,-1.722614 m -3.78142,-2.609497 c 0,0 -2.33751,0.534105 -1.05551,2.361847 0,0 1.02058,1.400881 1.02058,2.302933 0,0 -0.18944,1.377245 1.35361,2.587978 0,0 0.73625,0.783167 1.25801,1.899003 0,0 0.21378,0.21343 0.58173,0.58173 0,0 0.65299,0.914048 1.00894,2.05352 0,0 2.11314,3.917244 6.22018,3.703814 m -2.82469,-0.542925 c 0,0 -0.1905,1.397705 0.42686,2.015066 m 1.45097,-1.496483 c 0,0 0.009,0.511175 0.40076,0.902758 m -8.66528,-5.959122 c 0,0 0.77505,1.47955 1.15887,2.87655 m -6.23428,-12.017022 c 0,0 1.15746,-0.849136 2.53435,-0.460022 m 4.65737,-0.377472 c 0,0 1.99108,-0.491772 3.43923,0.552802 0,0 0.48648,0.273403 0.68827,0.475192 0,0 1.36031,0.793397 2.23838,3.215217 M 139.43,61.333638 c 0,0 3.689,-0.319617 5.93231,2.5654 0,0 1.29363,1.48343 1.64959,2.694163 m 1.73954,5.599995 c 0,0 0.61137,-1.112661 0.30234,-2.157589 0,0 -0.11854,-0.759531 -0.11854,-0.99695 0,0 -0.0713,-0.831144 -0.68862,-1.186744 0,0 -1.66158,-1.828448 -3.25261,-2.445456 0,0 -1.01741,-0.576439 -1.31939,-0.87877 0,0 -0.61524,-0.431799 -1.60831,-0.04339 m -1.51271,-0.150283 c 0,0 2.12831,-0.130528 2.84056,0.948972"
       style="fill:none;stroke:#231f20;stroke-width:0.26423055;stroke-linecap:butt;stroke-linejoin:miter;stroke-miterlimit:4;stroke-dasharray:none;stroke-opacity:1"
       id="path510"
       inkscape:connector-curvature="0" />
    <path
       d="m 134.70383,61.936535 c 0,0 0.78,0.146755 1.06575,-0.03704 l -0.0377,0.393347 c 0,0 -0.62865,0.337961 -0.60925,0.770467 0,0 -0.32879,-1.036461 -0.41875,-1.126773"
       style="fill:#231f20;fill-opacity:1;fill-rule:nonzero;stroke:none;stroke-width:0.35277775"
       id="path512"
       inkscape:connector-curvature="0" />
    <path
       d="m 136.18903,65.617418 c 0,0 0.66851,0.108656 0.89323,-0.237419 0,0 0.0162,1.325033 0.13371,1.442155 l -1.02694,-1.204736"
       style="fill:#231f20;fill-opacity:1;fill-rule:nonzero;stroke:none;stroke-width:0.35277775"
       id="path514"
       inkscape:connector-curvature="0" />
    <path
       d="m 136.95491,65.713726 c 0,0 0.69815,-1.258358 1.15111,-1.391355 0,0 -0.16227,1.477786 0.45262,2.470503 0,0 0.19403,0.893586 1.62489,0.496005"
       style="fill:none;stroke:#231f20;stroke-width:0.26423055;stroke-linecap:butt;stroke-linejoin:miter;stroke-miterlimit:4;stroke-dasharray:none;stroke-opacity:1"
       id="path516"
       inkscape:connector-curvature="0" />
    <path
       d="m 138.48173,68.582868 c 0,0 0.55104,0.204964 0.75742,-0.220133 0,0 -0.0494,1.698978 0.12417,2.085622"
       style="fill:#231f20;fill-opacity:1;fill-rule:nonzero;stroke:none;stroke-width:0.35277775"
       id="path518"
       inkscape:connector-curvature="0" />
    <path
       d="m 139.12379,68.684821 c 0,0 0.3944,-1.227314 0.94156,-1.324328 m -6.85412,-6.41738 c 0,0 0.88794,1.25095 1.05093,1.758244 m 0.16333,0.579967 c 0,0 -0.12664,1.37795 0.79799,2.30258 0,0 0.92428,0.833614 1.17792,1.576917 0,0 0.97931,1.703917 1.23296,2.120547 m 0.95003,-4.94418 0.10125,1.33738 m 2.36396,1.178631 -0.29809,0.760941 m -4.31201,-6.212416 c 0,0 -0.0744,0.429683 -0.0744,0.719666 m -0.81562,-1.449916 c 0,0 0.11854,0.531989 0.27023,0.583847 m 9.13201,2.231672 c 0,0 0.0511,0.467783 0,0.519642 m 0.95355,1.866547 -0.0409,0.852311 m -6.25404,5.420431 c 0,0 0.55315,0.26423 1.20121,0.104775 m -7.59778,-9.2964 0.0586,1.915936 m 0.57326,-1.117953 c 0,0 0.21732,0.669925 0.21732,1.320447 m 13.32477,36.238741 c 0,0 0.21872,1.79352 0.7874,2.93088 0,0 1.60443,2.63984 1.60443,8.34037 0,0 -0.25188,5.32377 0.16051,8.06909 0,0 0.0759,2.31105 1.57022,2.68816 0,0 1.7332,0.71755 2.23132,1.01636 0,0 2.72873,1.17439 4.06364,-0.43886 0,0 1.73285,-1.19486 1.37407,-2.17099 0,0 -0.4071,-1.52294 -0.28751,-1.94099 m -6.23041,-16.09478 c 0,0 -0.1083,1.01671 -0.36759,1.77342 0,0 -0.8442,1.49295 0.2159,5.23487 m 2.61761,-8.99795 c 0,0 -1.10314,2.1844 -1.31974,4.19594 0,0 -0.62724,2.33644 0.32455,5.8621 m 1.89266,2.95311 c 0,0 -1.90994,-7.56179 0.70167,-12.23892 l 2.45533,-4.716288 m 0.14429,-1.533877 c 0,0 -1.13524,1.815746 1.27176,2.452159 M 148.68407,96.55109 c 0,0 -0.71791,-1.215673 -1.43581,-0.159456 0,0 -0.35878,0.597958 0.53834,1.494718 0,0 0.5782,0.518232 0.65793,0.917223 0,0 0.37888,0.956734 1.05621,-0.03986 M 139.73268,86.10534 c 0,0 0.65829,0.916869 1.55505,1.216377 0,0 0.95708,0.238832 1.51518,0.79728 0,0 0.5782,0.817033 1.39559,0.817033 0,0 0.80927,-0.06103 1.43862,-0.934863 0,0 1.88631,-1.991429 3.68582,-0.698852 0,0 0.38418,0.471665 0.9959,0.629002 0,0 1.55469,0.611365 1.78188,1.309865 0,0 -0.1397,0.594431 0.40146,0.594431 0,0 1.86937,0.751062 1.86937,2.375604 0,0 0.11536,0.838552 0.20637,0.95109 1.48379,1.84432 6.35424,1.474258 6.35424,1.474258 0.55774,0 1.05586,0.876652 1.05586,0.876652 0.76694,0.76694 0.37853,1.354315 0.37853,1.354315 -0.508,0.508 -0.47837,1.45415 -0.47837,1.45415 -0.0995,1.354667 1.07562,1.792458 1.07562,1.792458 0.63289,0.24413 0.55774,0.79693 0.55774,0.79693 0,0.99589 -0.67697,1.09537 -0.67697,1.09537 -5.63739,2.80847 -4.86058,7.76852 -4.86058,7.76852 0.0801,3.7652 3.24697,6.65339 3.24697,6.65339 1.02588,1.02553 -0.41804,1.99179 -0.41804,1.99179 -1.51413,1.13559 -2.07187,-2.23132 -2.07187,-2.23132 m -7.02239,-27.453521 c 0,0 -1.50495,0.803275 -1.50495,2.952043 m 2.03588,-1.917345 c 0,0 -1.00506,0.676627 -1.23225,1.568095 m 2.91747,-1.432629 c 0,0 -2.13113,0.419452 -2.81234,3.389136 l 3.45545,-0.132292 m -2.09303,-2.418292 c 0,0 -0.45226,1.920875 1.6256,2.436635"
       style="fill:none;stroke:#231f20;stroke-width:0.26423055;stroke-linecap:butt;stroke-linejoin:miter;stroke-miterlimit:4;stroke-dasharray:none;stroke-opacity:1"
       id="path520"
       inkscape:connector-curvature="0" />
    <path
       d="m 154.37155,92.210865 c -0.54998,0.550334 -1.03047,-0.174625 -1.03047,-0.174625 -0.4191,-0.594079 0.19227,-1.537406 0.19227,-1.537406 0,0 0.72884,0.661106 0.72884,1.05551 l 0.10936,0.656521"
       style="fill:#231f20;fill-opacity:1;fill-rule:nonzero;stroke:none;stroke-width:0.35277775"
       id="path522"
       inkscape:connector-curvature="0" />
    <path
       d="m 154.86085,93.453349 v 1.76177"
       style="fill:none;stroke:#231f20;stroke-width:0.26423055;stroke-linecap:butt;stroke-linejoin:miter;stroke-miterlimit:4;stroke-dasharray:none;stroke-opacity:1"
       id="path524"
       inkscape:connector-curvature="0" />
    <path
       d="m 161.41193,96.7176 c 0,0 -1.06574,0.227542 -0.59407,1.275644 0,0 0.23565,0.323146 0.40181,-0.122767 l 0.19226,-1.152877"
       style="fill:#231f20;fill-opacity:1;fill-rule:nonzero;stroke:none;stroke-width:0.35277775"
       id="path526"
       inkscape:connector-curvature="0" />
    <path
       d="m 162.9638,100.11379 c 0,0 -2.47791,0.98848 -3.24661,2.73544 m -0.21343,0.19614 c 0,0 -0.23566,0.24765 -0.32632,0.55492 m -0.26494,0.37465 c 0,0 -0.22366,0.27129 -0.22366,0.34996 m -4.57235,7.99289 c 0,0 0.0759,0.50059 0.15169,0.71296 m 4.07953,1.77412 c 0,0 0.0762,0.31856 0.16651,0.56127 m -2.88114,-14.39192 c 0,0 -0.28786,0.43956 -0.33373,0.48507 m 3.9878,12.50032 c 0,0 0.10231,-0.63676 0.59584,-0.41839 0,0 0.2279,0.21731 0,1.32292 m 0.17287,0.23389 c 0,0 -0.0497,-1.53811 0.79516,-1.26295 0,0 0.44591,0.0476 0,1.05375 0,0 -0.29916,0.91581 -0.20885,1.00612 m -0.55245,-1.30069 c 0,0 0.35349,0.47625 0.7045,0.47625 m -1.67252,-9.86931 c 0,0 0.84773,0.23742 1.07738,-0.28646 0,0 0.26141,-0.32878 -0.30974,-0.71966 m 0.36689,0.48613 c 0,0 0.63853,0.12417 0.82445,-0.44345 0,0 0.12911,-0.44238 -0.20991,-0.97472 m 0.22825,0.86007 c 0,0 0.96485,0.29351 0.74824,-0.49847 0,0 -0.23177,-0.77153 -0.23177,-0.90947 m 0.25223,1.20474 c 0,0 1.00366,0.18345 0.72496,-0.72496 0,0 -0.1778,-1.08126 0.14499,-1.13488 m -1.10525,0.76729 0.9137,-0.12347 M 143.85948,88.88805 c 0,0 0.0476,0.813859 0.45825,1.617134 m 0.0536,0.46355 0.16052,0.160515 M 144.40593,88.8944 c 0,0 0.0723,0.432507 0.26881,0.932392 m -2.27012,-2.021768 0.12806,0.89676 m 0.67274,-0.16651 c 0,0 0.0233,0.737658 0.16616,0.880533 m 0.0716,0.35701 0.10689,0.30339 m 0.24977,0.82056 0.0536,0.19685"
       style="fill:none;stroke:#231f20;stroke-width:0.26423055;stroke-linecap:butt;stroke-linejoin:miter;stroke-miterlimit:4;stroke-dasharray:none;stroke-opacity:1"
       id="path528"
       inkscape:connector-curvature="0" />
    <path
       d="m 147.99474,97.476074 c 0,0 -0.77506,-0.584907 -0.33267,-0.81633 0,0 0.2854,-0.258233 0.76835,0.353838 0,0 0.3877,0.673452 -0.21449,0.214487 0,0 -0.33655,0.0508 -0.22119,0.248005"
       style="fill:#231f20;fill-opacity:1;fill-rule:nonzero;stroke:none;stroke-width:0.35277775"
       id="path530"
       inkscape:connector-curvature="0" />
    <path
       d="M 149.00121,98.326267 V 97.407986"
       style="fill:none;stroke:#231f20;stroke-width:0.36724168;stroke-linecap:butt;stroke-linejoin:miter;stroke-miterlimit:4;stroke-dasharray:none;stroke-opacity:1"
       id="path532"
       inkscape:connector-curvature="0" />
    <path
       d="m 146.5734,95.844124 v 0.346778 m 0.17709,-0.877003 v 0.203903 m -0.35348,-1.210378 v 0.292451 m 2.11208,-4.770966 v 0.182388 m 0,-0.706615 -0.35278,0.170743 m -2.21121,0.969082 v 0.15734 m 0.16616,-1.14653 0.0554,0.434271 m 1.22978,0.12065 0.0646,0.175684 m -0.49001,-1.285172 -0.0275,0.09243 m 0,-0.98919 0.14782,0.342548 m 0.15698,-0.832556 -0.0921,0.07373 m 0.51753,-0.05539 0.19438,0.05539 m 0.21237,0.823029 0.17568,0.147815 m 0.009,-0.711907 0.33303,0.323499 m 0.0741,0.148166 0.15698,0.286457 m 0.24059,-0.21308 0.0741,0.22225 m -0.40745,0.378883 0.0928,0.31468 m -0.80469,-0.425805 -0.037,0.147815 m -0.2674,-0.702381 -0.23178,0.110773 m 0.18521,-0.508352 v 0.194379 m 0.26846,2.810227 -0.20425,0.286808 m -0.0642,0.305506 -0.19439,0.277284 m 0.55493,-0.240594 -0.01,0.258937 m -1.11831,0.51788 -0.16687,0.286102 m -0.26811,0.138993 -0.12911,0.240597 m 0.49918,-0.295982 0.0832,0.06456 m -0.64735,-0.360539 0.0649,0.129471 m 0.6657,0.711904 0.28645,0.536223 m 0.35137,0.370065 -0.009,0.2032 m 0.47166,-1.432984 0.009,0.850546 m -0.11112,0.295981 h 0.35172 m 0.0367,1.331383 -0.46214,0.656519 m 0.81351,-0.203552 -0.34361,0.343958 m 0.0663,-1.582914 0.009,0.231071 m -0.3235,0.05539 -0.27763,0.49036 m -0.0321,0.0321 -0.0882,0.162277 m -0.53622,-0.32385 0.12065,0.425098"
       style="fill:none;stroke:#231f20;stroke-width:0.1760361;stroke-linecap:butt;stroke-linejoin:miter;stroke-miterlimit:4;stroke-dasharray:none;stroke-opacity:1"
       id="path534"
       inkscape:connector-curvature="0" />
    <path
       d="m 160.08725,118.63992 c 0,0 -1.1564,0.52952 -1.67216,2.22355 m -73.158703,-41.113069 3.346097,2.581275 m -2.772481,-10.372725 3.728156,5.449711 m -0.23883,-11.281127 2.485672,7.026628 m 2.246489,-7.935031 0.190852,5.066947 m 3.298473,-5.162197 v 4.302125 m 2.676525,-4.350103 v 3.202517 m 4.01496,-2.963334 -0.33443,4.062942 m 4.34975,-3.728155 -0.66957,5.066241 m 10.32545,-1.242483 -2.10326,5.114925 m 11.5196,1.386064 -2.7245,3.394075 m 5.30578,-1.338439 -3.01131,3.298119 m 5.54461,-1.099255 -2.6289,2.628901 m 4.68453,-0.334082 -2.53329,2.294467 m 5.06659,0.573617 -2.77248,1.959681 m 4.30212,0.525992 -3.01166,1.816452 m 4.4457,0.813151 -3.15489,1.672874 m 4.68454,0.955675 -3.2505,1.434393 m 4.97135,3.823758 -3.63255,1.434394 m 4.06294,-0.621594 -1.33844,0.382411"
       style="fill:none;stroke:#231f20;stroke-width:0.26423055;stroke-linecap:butt;stroke-linejoin:miter;stroke-miterlimit:4;stroke-dasharray:none;stroke-opacity:1"
       id="path536"
       inkscape:connector-curvature="0" />
    <path
       d="m 87.081307,67.331213 8.067674,48.216607 m -0.595136,0.9077 -5.466644,14.13122 57.778999,-6.40786"
       style="fill:none;stroke:#231f20;stroke-width:0.35242501;stroke-linecap:butt;stroke-linejoin:miter;stroke-miterlimit:4;stroke-dasharray:none;stroke-opacity:1"
       id="path538"
       inkscape:connector-curvature="0" />
    <path
       d="m 116.61268,130.19445 c 0,0 0.57292,-0.43533 1.55575,0.002 0,0 3.27484,1.14723 4.33,4.19488 0,0 2.10996,5.4176 0.79693,8.13717 0,0 -0.085,0.26458 -0.72461,0.39335 0,0 -0.99695,0.26105 -0.77823,0.47977 0,0 -0.0109,0.0744 0.26635,-0.0215 0,0 0.68262,-0.33055 0.98072,0.10619 0,0 0.23495,0.48013 -0.2346,1.22626 0,0 -0.31961,0.68156 -0.49036,1.09749 0,0 -1.00189,1.8228 -2.85609,2.76049 0,0 -0.18132,0.2988 0.23425,0.23459 0,0 2.43064,-0.53304 3.59198,-4.18923 0,0 0.67134,-2.5146 3.37891,-2.95205 0,0 1.67393,-0.35207 2.35585,-0.53269 0,0 3.8802,-0.35172 6.43819,-1.93993 0,0 1.86549,-0.84208 2.76084,-0.96978 l -0.10513,-0.74684 c 0,0 -2.12901,1.24143 -2.53471,0.12595 l -0.65863,-1.31763 h -0.3549 c 0,0 -0.11394,0.26635 0.15205,0.53234 0,0 1.06433,1.72297 -0.55774,2.25531 0,0 -1.24919,0.33161 -1.88595,0.7112 0,0 -2.51637,0.93804 -4.70077,0.7994 0,0 -1.84749,0.26317 -2.88431,-1.8288 0,0 -0.78528,-1.80129 -0.98848,-2.97992 0,0 -0.46002,-1.9364 -0.89394,-2.55975 0,0 -0.6096,-0.75883 -0.8262,-1.24637 0,0 -1.17863,-1.50318 -2.68217,-1.88277 0,0 -1.86867,-0.55563 -2.20769,-1.25977 0,0 0.0138,0.70414 -0.70414,1.2326 l 0.22683,0.13794"
       style="fill:#231f20;fill-opacity:1;fill-rule:nonzero;stroke:none;stroke-width:0.35277775"
       id="path540"
       inkscape:connector-curvature="0" />
    <path
       d="m 138.19387,138.0441 c 0,0 6.01062,-0.7052 9.05121,0.87242 0,0 2.78906,0.75495 2.78906,3.42936 0,0.31644 -0.27692,0.69321 -0.54221,0.83114 -0.11677,0.0607 -0.26318,0.0667 -0.387,0.10866 -0.0995,0.0339 -0.1838,0.09 -0.26811,0.15169 -0.19756,0.14323 -0.40675,0.33302 -0.47131,0.57785 m 1.21743,-0.895 c 0,0 1.61678,0.84914 -0.4632,4.48381"
       style="fill:none;stroke:#231f20;stroke-width:0.35242501;stroke-linecap:butt;stroke-linejoin:miter;stroke-miterlimit:4;stroke-dasharray:none;stroke-opacity:1"
       id="path542"
       inkscape:connector-curvature="0" />
    <path
       d="m 143.3349,134.37522 c 0,0 2.84092,-1.82739 3.8555,-5.39292 0,0 1.68099,-3.85551 3.56518,-3.21733 0,0 1.97096,0.78211 -1.39136,7.50711 0,0 -1.65206,2.60985 -5.91326,3.91442 0,0 -2.08739,0.75318 -2.08739,-0.75388 0,0 -0.21907,-0.69568 0.66675,-1.04352 0,0 1.0728,-0.78246 1.30458,-1.01388 z m -0.25753,1.51341 c 0,0 -0.30974,0.59796 -0.30974,0.95215 m -0.70873,-0.68686 -0.0321,1.18004 m -0.10054,-1.94486 v 0.5214 m -0.37007,-0.21519 0.1524,1.50354 m 0.72708,-1.04493 0.002,1.22026 m 0.61736,-2.76013 c 0,0 0.33302,0.21096 0.57644,0.45508 m -0.0811,-0.84596 0.76729,0.13758 m 0.15522,1.28411 0.0423,1.16946 m -0.77329,-0.83714 v 0.64206 m -0.50941,-0.24377 0.09,0.85231 m 1.52647,-1.51624 -0.0243,0.97613 m -0.1524,-0.66639 0.0233,0.72107 m 0.33091,-0.74295 0.0159,0.59408"
       style="fill:none;stroke:#231f20;stroke-width:0.26423055;stroke-linecap:butt;stroke-linejoin:miter;stroke-miterlimit:4;stroke-dasharray:none;stroke-opacity:1"
       id="path544"
       inkscape:connector-curvature="0" />
    <path
       d="m 146.14336,131.35544 c 0,0 -0.47519,2.11949 0.52141,2.56222 0,0 1.41887,0.75248 2.55128,-0.4385 l 1.09714,-2.27401 c 0,0 -0.61806,-0.32385 -0.96943,0.49848 0,0 -0.62018,1.43898 -1.43898,1.43898 0,0 -0.53164,0.31044 -0.75283,-0.33196 0,0 -0.59796,-0.15487 -0.29916,-0.29881 0,0 0.0998,-0.27693 0.18804,-0.36547 0.0889,-0.0885 0.13335,-0.48719 -0.0882,-0.48719 -0.2219,0 -0.42051,-0.64241 0,-0.64241 0,0 0,-0.39864 0,-0.6417 l 0.42051,-0.7306 0.11077,-0.53164 h -0.33232 l -0.78422,1.85737 -0.22402,0.38524"
       style="fill:#231f20;fill-opacity:1;fill-rule:nonzero;stroke:none;stroke-width:0.35277775"
       id="path546"
       inkscape:connector-curvature="0" />
    <path
       d="m 147.92665,132.43423 c 0,0 0.48719,0.46567 0.48719,0.68616 m 0.11077,-1.0407 0.46496,0.73096 m 1.12924,-5.46912 -0.46496,1.32821 m 1.01882,-0.90734 c 0,0 0.29387,0.90417 0.47907,0.90417 m -0.16968,-1.19239 h 0.34184 m -1.09432,2.52447 0.31574,0.62195 m -2.61867,0.52952 0.0663,0.44309 m 0.266,-0.26599 v 0.22154 m 0.50905,-1.74978 -0.0222,0.33267 m -1.26188,1.24002 v 0.17709"
       style="fill:none;stroke:#231f20;stroke-width:0.26423055;stroke-linecap:butt;stroke-linejoin:miter;stroke-miterlimit:4;stroke-dasharray:none;stroke-opacity:1"
       id="path548"
       inkscape:connector-curvature="0" />
    <path
       d="m 77.923195,102.67037 c 0,0 3.6703,1.70886 4.049889,-1.01212 0,0 0.221545,-1.23437 0,-3.19581 0,0 -0.0635,-4.176538 0.158397,-5.347406 0,0 0.347839,-4.840817 0.347839,-6.232877 m 3.191581,15.227303 c 0,0 -0.610306,0.85231 -0.08431,1.3783 m -3.715456,-1.38712 c 0,0 0.318911,1.9124 3.510139,0.7246"
       style="fill:none;stroke:#231f20;stroke-width:0.35242501;stroke-linecap:butt;stroke-linejoin:miter;stroke-miterlimit:4;stroke-dasharray:none;stroke-opacity:1"
       id="path550"
       inkscape:connector-curvature="0" />
    <path
       d="m 81.059037,103.02527 1.558219,-0.007 -0.700616,-0.76164 -0.857603,0.7687"
       style="fill:#231f20;fill-opacity:1;fill-rule:nonzero;stroke:none;stroke-width:0.35277775"
       id="path552"
       inkscape:connector-curvature="0" />
    <path
       d="m 82.177695,92.449694 2.595739,-0.05574"
       style="fill:none;stroke:#231f20;stroke-width:0.35242501;stroke-linecap:butt;stroke-linejoin:miter;stroke-miterlimit:4;stroke-dasharray:none;stroke-opacity:1"
       id="path554"
       inkscape:connector-curvature="0" />
    <path
       d="m 82.239079,91.544819 c 0,0 0.516113,0.685448 0.8509,0.885473 0,0 -0.99307,0.817033 -1.020234,1.154994 l 0.169334,-2.040467"
       style="fill:#231f20;fill-opacity:1;fill-rule:nonzero;stroke:none;stroke-width:0.35277775"
       id="path556"
       inkscape:connector-curvature="0" />
    <path
       d="m 79.934029,94.354694 c 0,0 1.348316,0.18415 2.135363,-0.769408 m 54.426198,41.505714 1.46474,1.58715 m -8.42257,-1.3836 -0.85443,0.65123"
       style="fill:none;stroke:#231f20;stroke-width:0.35242501;stroke-linecap:butt;stroke-linejoin:miter;stroke-miterlimit:4;stroke-dasharray:none;stroke-opacity:1"
       id="path558"
       inkscape:connector-curvature="0" />
    <path
       d="m 128.65476,135.3323 -1.20898,1.56387 1.8288,-0.75001 -0.61982,-0.81386"
       style="fill:#231f20;fill-opacity:1;fill-rule:nonzero;stroke:none;stroke-width:0.35277775"
       id="path560"
       inkscape:connector-curvature="0" />
    <path
       d="m 139.54712,133.05618 -0.67134,0.8957"
       style="fill:none;stroke:#231f20;stroke-width:0.35242501;stroke-linecap:butt;stroke-linejoin:miter;stroke-miterlimit:4;stroke-dasharray:none;stroke-opacity:1"
       id="path562"
       inkscape:connector-curvature="0" />
    <path
       d="m 138.68105,133.36945 -0.73589,1.83479 1.55434,-1.22096 -0.81845,-0.61383"
       style="fill:#231f20;fill-opacity:1;fill-rule:nonzero;stroke:none;stroke-width:0.35277775"
       id="path564"
       inkscape:connector-curvature="0" />
    <path
       d="m 141.36781,136.53139 -1.33244,0.32915"
       style="fill:none;stroke:#231f20;stroke-width:0.35242501;stroke-linecap:butt;stroke-linejoin:miter;stroke-miterlimit:4;stroke-dasharray:none;stroke-opacity:1"
       id="path566"
       inkscape:connector-curvature="0" />
    <path
       d="m 140.25303,136.28621 -1.73143,0.95427 1.97661,0.0392 -0.24518,-0.99343"
       style="fill:#231f20;fill-opacity:1;fill-rule:nonzero;stroke:none;stroke-width:0.35277775"
       id="path568"
       inkscape:connector-curvature="0" />
    <path
       d="m 145.28646,124.35386 c 0,0 -0.77575,3.23038 -1.71168,4.75615"
       style="fill:none;stroke:#231f20;stroke-width:0.35242501;stroke-linecap:butt;stroke-linejoin:miter;stroke-miterlimit:4;stroke-dasharray:none;stroke-opacity:1"
       id="path570"
       inkscape:connector-curvature="0" />
    <path
       d="m 143.32678,128.54803 -0.56268,1.89548 1.4351,-1.36031 -0.87242,-0.53517"
       style="fill:#231f20;fill-opacity:1;fill-rule:nonzero;stroke:none;stroke-width:0.35277775"
       id="path572"
       inkscape:connector-curvature="0" />
    <path
       d="m 143.73777,126.95348 1.64782,0.83396 m -5.73652,-7.87294 1.70851,0.40676 m 0.55985,11.79441 0.60537,0.41381 m 0.35066,-2.32621 0.66922,0.70097 m -5.89597,-1.56175 1.4665,0.89253 m 2.07927,-23.01487 1.51094,-0.32138"
       style="fill:none;stroke:#231f20;stroke-width:0.35242501;stroke-linecap:butt;stroke-linejoin:miter;stroke-miterlimit:4;stroke-dasharray:none;stroke-opacity:1"
       id="path574"
       inkscape:connector-curvature="0" />
    <path
       d="m 128.22542,143.32554 c -0.13405,0.41099 -0.53763,0.71014 -1.01494,0.71014 -0.58667,0 -1.06256,-0.45155 -1.06256,-1.00859 0,-0.55668 0.47589,-1.00859 1.06256,-1.00859 0.23954,0 0.46038,0.0751 0.63818,0.20214"
       style="fill:none;stroke:#231f20;stroke-width:0.1760361;stroke-linecap:butt;stroke-linejoin:miter;stroke-miterlimit:4;stroke-dasharray:none;stroke-opacity:1"
       id="path576"
       inkscape:connector-curvature="0" />
    <path
       d="m 127.68744,142.12645 0.40005,0.59619 0.36407,-0.53093 -0.76412,-0.0653"
       style="fill:#231f20;fill-opacity:1;fill-rule:nonzero;stroke:none;stroke-width:0.35277775"
       id="path578"
       inkscape:connector-curvature="0" />
    <path
       d="m 126.80655,142.62951 c 0,0 0.16334,0.38911 0.35525,0.38911 0,0 0.18591,0.0409 0.1337,-0.2674 0,0 0.0233,-0.2152 0.24412,-0.15699 0,0 0.52952,0.0409 0.0409,0.75071 0,0 -0.25012,0.32597 -0.29704,-0.0529 0,0 -0.13335,-0.31397 -0.2674,0.13406 0,0 -0.23883,0.23283 -0.23883,-0.16298 l 0.0293,-0.63359"
       style="fill:#231f20;fill-opacity:1;fill-rule:nonzero;stroke:none;stroke-width:0.35277775"
       id="path580"
       inkscape:connector-curvature="0" />
    <path
       d="m 144.33255,104.10688 c 0,0 -0.19403,-2.26765 -0.46954,-3.11044"
       style="fill:none;stroke:#231f20;stroke-width:0.35242501;stroke-linecap:butt;stroke-linejoin:miter;stroke-miterlimit:4;stroke-dasharray:none;stroke-opacity:1"
       id="path582"
       inkscape:connector-curvature="0" />
    <path
       d="m 144.45179,101.17107 -1.0795,-1.655943 0.10654,1.973793 0.97296,-0.31785"
       style="fill:#231f20;fill-opacity:1;fill-rule:nonzero;stroke:none;stroke-width:0.35277775"
       id="path584"
       inkscape:connector-curvature="0" />
    <text
       y="138.73071"
       x="-13.084015"
       transform="rotate(-59.353216)"
       style="font-variant:normal;font-weight:normal;font-size:2.8182358px;font-family:Helvetica;-inkscape-font-specification:'Helvetica, Normal';writing-mode:lr;fill:#231f20;fill-opacity:1;fill-rule:nonzero;stroke:none;stroke-width:0.35277775;font-style:normal;font-stretch:normal;text-anchor:start;text-align:start;font-variant-ligatures:normal;font-variant-caps:normal;font-variant-numeric:normal;font-feature-settings:normal;"
       id="text588">
      <tspan
         sodipodi:role="line"
         id="tspan1163"></tspan>
    </text>
    <text
       y="142.58711"
       x="33.569866"
       transform="rotate(-41.186531)"
       style="font-variant:normal;font-weight:normal;font-size:2.81827113px;font-family:Helvetica;-inkscape-font-specification:'Helvetica, Normal';writing-mode:lr;fill:#231f20;fill-opacity:1;fill-rule:nonzero;stroke:none;stroke-width:0.35277778;font-style:normal;font-stretch:normal;text-anchor:start;text-align:start;font-variant-ligatures:normal;font-variant-caps:normal;font-variant-numeric:normal;font-feature-settings:normal;"
       id="text604">
      <tspan
         sodipodi:role="line"
         id="tspan1161"></tspan>
    </text>
    <text
       y="154.39206"
       x="44.421703"
       transform="rotate(-31.778297)"
       style="font-variant:normal;font-weight:normal;font-size:2.8182358px;font-family:Helvetica;-inkscape-font-specification:'Helvetica, Normal';writing-mode:lr;fill:#231f20;fill-opacity:1;fill-rule:nonzero;stroke:none;stroke-width:0.35277775;font-style:normal;font-stretch:normal;text-anchor:start;text-align:start;font-variant-ligatures:normal;font-variant-caps:normal;font-variant-numeric:normal;font-feature-settings:normal;"
       id="text608">
      <tspan
         sodipodi:role="line"
         id="tspan1159"></tspan>
    </text>
    <text
       y="150.93468"
       x="75.250778"
       transform="rotate(-25.742312)"
       style="font-variant:normal;font-weight:normal;font-size:2.8182358px;font-family:Helvetica;-inkscape-font-specification:'Helvetica, Normal';writing-mode:lr;fill:#231f20;fill-opacity:1;fill-rule:nonzero;stroke:none;stroke-width:0.35277778;font-style:normal;font-stretch:normal;text-anchor:start;text-align:start;font-variant-ligatures:normal;font-variant-caps:normal;font-variant-numeric:normal;font-feature-settings:normal;"
       id="text612">
      <tspan
         sodipodi:role="line"
         id="tspan1171"></tspan>
    </text>
    <text
       y="142.14082"
       x="100.39914"
       transform="rotate(-15.841264)"
       style="font-variant:normal;font-weight:normal;font-size:2.8182358px;font-family:Helvetica;-inkscape-font-specification:'Helvetica, Normal';writing-mode:lr;fill:#231f20;fill-opacity:1;fill-rule:nonzero;stroke:none;stroke-width:0.35277775;font-style:normal;font-stretch:normal;text-anchor:start;text-align:start;font-variant-ligatures:normal;font-variant-caps:normal;font-variant-numeric:normal;font-feature-settings:normal;"
       id="text616">
      <tspan
         sodipodi:role="line"
         id="tspan1173"></tspan>
    </text>
    <text
       y="55.073841"
       x="169.96191"
       transform="rotate(23.555045)"
       style="font-variant:normal;font-weight:normal;font-size:2.81820048px;font-family:Helvetica;-inkscape-font-specification:'Helvetica, Normal';writing-mode:lr;fill:#231f20;fill-opacity:1;fill-rule:nonzero;stroke:none;stroke-width:0.35277775;font-style:normal;font-stretch:normal;text-anchor:start;text-align:start;font-variant-ligatures:normal;font-variant-caps:normal;font-variant-numeric:normal;font-feature-settings:normal;"
       id="text620">
      <tspan
         sodipodi:role="line"
         id="tspan1175"></tspan>
    </text>
    <text
       y="33.871433"
       x="170.98643"
       transform="rotate(31.962203)"
       style="font-variant:normal;font-weight:normal;font-size:2.8182358px;font-family:Helvetica;-inkscape-font-specification:'Helvetica, Normal';writing-mode:lr;fill:#231f20;fill-opacity:1;fill-rule:nonzero;stroke:none;stroke-width:0.35277775;font-style:normal;font-stretch:normal;text-anchor:start;text-align:start;font-variant-ligatures:normal;font-variant-caps:normal;font-variant-numeric:normal;font-feature-settings:normal;"
       id="text626">
      <tspan
         sodipodi:role="line"
         id="tspan1177"></tspan>
    </text>
    <text
       y="117.13271"
       x="-63.655827"
       transform="rotate(-82.187674)"
       style="font-variant:normal;font-weight:normal;font-size:2.8182358px;font-family:Helvetica;-inkscape-font-specification:'Helvetica, Normal';writing-mode:lr;fill:#231f20;fill-opacity:1;fill-rule:nonzero;stroke:none;stroke-width:0.35277775;font-style:normal;font-stretch:normal;text-anchor:start;text-align:start;font-variant-ligatures:normal;font-variant-caps:normal;font-variant-numeric:normal;font-feature-settings:normal;"
       id="text630">
      <tspan
         sodipodi:role="line"
         id="tspan1165"></tspan>
    </text>
    <text
       y="106.71838"
       x="-75.057083"
       transform="rotate(-88.084683)"
       style="font-variant:normal;font-weight:normal;font-size:2.8182358px;font-family:Helvetica;-inkscape-font-specification:'Helvetica, Normal';writing-mode:lr;fill:#231f20;fill-opacity:1;fill-rule:nonzero;stroke:none;stroke-width:0.35277775;font-style:normal;font-stretch:normal;text-anchor:start;text-align:start;font-variant-ligatures:normal;font-variant-caps:normal;font-variant-numeric:normal;font-feature-settings:normal;"
       id="text634">
      <tspan
         sodipodi:role="line"
         id="tspan1167"></tspan>
    </text>
    <text
       y="101.42003"
       x="-80.47049"
       transform="rotate(-90)"
       style="font-variant:normal;font-weight:normal;font-size:2.81820048px;font-family:Helvetica;-inkscape-font-specification:'Helvetica, Normal';writing-mode:lr;fill:#231f20;fill-opacity:1;fill-rule:nonzero;stroke:none;stroke-width:0.35277775;font-style:normal;font-stretch:normal;text-anchor:start;text-align:start;font-variant-ligatures:normal;font-variant-caps:normal;font-variant-numeric:normal;font-feature-settings:normal;"
       id="text640">
      <tspan
         sodipodi:role="line"
         id="tspan1169"></tspan>
    </text>
    <text
       y="146.00996"
       x="124.637"
       style="font-variant:normal;font-weight:normal;font-size:2.11366796px;font-family:Helvetica;-inkscape-font-specification:Helvetica;writing-mode:lr-tb;fill:#231f20;fill-opacity:1;fill-rule:nonzero;stroke:none;stroke-width:0.35277775"
       id="text644">
      <tspan
         style="stroke-width:0.35277775"
         x="124.637 125.81221 126.9874 128.1626"
         y="146.00996"
         sodipodi:role="line"
         id="tspan642">1948</tspan>
    </text>
    <text
       y="-96.535324"
       x="69.711548"
       transform="rotate(90)"
       style="font-variant:normal;font-weight:normal;font-size:2.81820048px;font-family:Helvetica;-inkscape-font-specification:'Helvetica, Normal';writing-mode:lr;fill:#231f20;fill-opacity:1;fill-rule:nonzero;stroke:none;stroke-width:0.35277775;font-style:normal;font-stretch:normal;text-anchor:start;text-align:start;font-variant-ligatures:normal;font-variant-caps:normal;font-variant-numeric:normal;font-feature-settings:normal;"
       id="text650">
      <tspan
         sodipodi:role="line"
         id="tspan1221"></tspan>
    </text>
    <text
       y="-22.649677"
       x="114.71409"
       transform="rotate(50.669466)"
       style="font-variant:normal;font-weight:normal;font-size:2.81824493px;font-family:Helvetica;-inkscape-font-specification:Helvetica;writing-mode:lr-tb;fill:#231f20;fill-opacity:1;fill-rule:nonzero;stroke:none;stroke-width:0.35277775"
       id="text658">
      <tspan
         style="stroke-width:0.35277775"
         x="114.71409"
         sodipodi:role="line"
         id="tspan654"
         y="-20.11113" />
      <tspan
         style="stroke-width:0.35277775"
         x="114.71409"
         y="-16.588324"
         sodipodi:role="line"
         id="tspan656" />
    </text>
    <text
       y="187.78746"
       x="14.117699"
       transform="rotate(-39.919808)"
       style="font-variant:normal;font-weight:normal;font-size:2.81820048px;font-family:Helvetica;-inkscape-font-specification:'Helvetica, Normal';writing-mode:lr;fill:#231f20;fill-opacity:1;fill-rule:nonzero;stroke:none;stroke-width:0.35277775;font-style:normal;font-stretch:normal;text-anchor:start;text-align:start;font-variant-ligatures:normal;font-variant-caps:normal;font-variant-numeric:normal;font-feature-settings:normal;"
       id="text662">
      <tspan
         sodipodi:role="line"
         id="tspan1183"></tspan>
    </text>
    <text
       y="188.46323"
       x="3.3127437"
       transform="rotate(-43.924797)"
       style="font-variant:normal;font-weight:normal;font-size:2.8182358px;font-family:Helvetica;-inkscape-font-specification:'Helvetica, Normal';writing-mode:lr;fill:#231f20;fill-opacity:1;fill-rule:nonzero;stroke:none;stroke-width:0.35277775;font-style:normal;font-stretch:normal;text-anchor:start;text-align:start;font-variant-ligatures:normal;font-variant-caps:normal;font-variant-numeric:normal;font-feature-settings:normal;"
       id="text666">
      <tspan
         sodipodi:role="line"
         id="tspan1185"></tspan>
    </text>
    <text
       y="188.47224"
       x="-4.445364"
       transform="rotate(-46.759544)"
       style="font-variant:normal;font-weight:normal;font-size:2.81827113px;font-family:Helvetica;-inkscape-font-specification:'Helvetica, Normal';writing-mode:lr;fill:#231f20;fill-opacity:1;fill-rule:nonzero;stroke:none;stroke-width:0.35277775;font-style:normal;font-stretch:normal;text-anchor:start;text-align:start;font-variant-ligatures:normal;font-variant-caps:normal;font-variant-numeric:normal;font-feature-settings:normal;"
       id="text670">
      <tspan
         sodipodi:role="line"
         id="tspan1179"></tspan>
    </text>
    <text
       y="188.23305"
       x="-9.8560858"
       transform="rotate(-48.834316)"
       style="font-variant:normal;font-weight:normal;font-size:2.8182358px;font-family:Helvetica;-inkscape-font-specification:'Helvetica, Normal';writing-mode:lr;fill:#231f20;fill-opacity:1;fill-rule:nonzero;stroke:none;stroke-width:0.35277778;font-style:normal;font-stretch:normal;text-anchor:start;text-align:start;font-variant-ligatures:normal;font-variant-caps:normal;font-variant-numeric:normal;font-feature-settings:normal;"
       id="text674">
      <tspan
         sodipodi:role="line"
         id="tspan1191"></tspan>
    </text>
    <text
       y="187.96849"
       x="-13.47195"
       transform="rotate(-50.174317)"
       style="font-variant:normal;font-weight:normal;font-size:2.8182358px;font-family:Helvetica;-inkscape-font-specification:'Helvetica, Normal';writing-mode:lr;fill:#231f20;fill-opacity:1;fill-rule:nonzero;stroke:none;stroke-width:0.35277775;font-style:normal;font-stretch:normal;text-anchor:start;text-align:start;font-variant-ligatures:normal;font-variant-caps:normal;font-variant-numeric:normal;font-feature-settings:normal;"
       id="text678">
      <tspan
         sodipodi:role="line"
         id="tspan1189"></tspan>
    </text>
    <text
       y="187.4332"
       x="-19.203108"
       transform="rotate(-52.111617)"
       style="font-variant:normal;font-weight:normal;font-size:2.81827113px;font-family:Helvetica;-inkscape-font-specification:'Helvetica, Normal';writing-mode:lr;fill:#231f20;fill-opacity:1;fill-rule:nonzero;stroke:none;stroke-width:0.35277775;font-style:normal;font-stretch:normal;text-anchor:start;text-align:start;font-variant-ligatures:normal;font-variant-caps:normal;font-variant-numeric:normal;font-feature-settings:normal;"
       id="text682">
      <tspan
         sodipodi:role="line"
         id="tspan1187"></tspan>
    </text>
    <text
       y="186.27849"
       x="-27.364681"
       transform="rotate(-55.047288)"
       style="font-variant:normal;font-weight:normal;font-size:2.8182358px;font-family:Helvetica;-inkscape-font-specification:'Helvetica, Normal';writing-mode:lr;fill:#231f20;fill-opacity:1;fill-rule:nonzero;stroke:none;stroke-width:0.35277775;font-style:normal;font-stretch:normal;text-anchor:start;text-align:start;font-variant-ligatures:normal;font-variant-caps:normal;font-variant-numeric:normal;font-feature-settings:normal;"
       id="text686">
      <tspan
         sodipodi:role="line"
         id="tspan1181"></tspan>
    </text>
    <text
       y="185.04375"
       x="-33.486515"
       transform="rotate(-57.418572)"
       style="font-variant:normal;font-weight:normal;font-size:2.8182358px;font-family:Helvetica;-inkscape-font-specification:'Helvetica, Normal';writing-mode:lr;fill:#231f20;fill-opacity:1;fill-rule:nonzero;stroke:none;stroke-width:0.35277775;font-style:normal;font-stretch:normal;text-anchor:start;text-align:start;font-variant-ligatures:normal;font-variant-caps:normal;font-variant-numeric:normal;font-feature-settings:normal;"
       id="text690">
      <tspan
         sodipodi:role="line"
         id="tspan1195"></tspan>
    </text>
    <text
       y="184.14928"
       x="-37.40379"
       transform="rotate(-58.878433)"
       style="font-variant:normal;font-weight:normal;font-size:2.8182358px;font-family:Helvetica;-inkscape-font-specification:'Helvetica, Normal';writing-mode:lr;fill:#231f20;fill-opacity:1;fill-rule:nonzero;stroke:none;stroke-width:0.35277775;font-style:normal;font-stretch:normal;text-anchor:start;text-align:start;font-variant-ligatures:normal;font-variant-caps:normal;font-variant-numeric:normal;font-feature-settings:normal;"
       id="text694">
      <tspan
         sodipodi:role="line"
         id="tspan1193"></tspan>
    </text>
    <text
       y="182.52191"
       x="-44.190533"
       transform="rotate(-61.194926)"
       style="font-variant:normal;font-weight:normal;font-size:2.8182358px;font-family:Helvetica;-inkscape-font-specification:'Helvetica, Normal';writing-mode:lr;fill:#231f20;fill-opacity:1;fill-rule:nonzero;stroke:none;stroke-width:0.35277778;font-style:normal;font-stretch:normal;text-anchor:start;text-align:start;font-variant-ligatures:normal;font-variant-caps:normal;font-variant-numeric:normal;font-feature-settings:normal;"
       id="text698">
      <tspan
         sodipodi:role="line"
         id="tspan1197"></tspan>
    </text>
    <text
       y="179.66158"
       x="-53.411556"
       transform="rotate(-64.607361)"
       style="font-variant:normal;font-weight:normal;font-size:2.8182358px;font-family:Helvetica;-inkscape-font-specification:'Helvetica, Normal';writing-mode:lr;fill:#231f20;fill-opacity:1;fill-rule:nonzero;stroke:none;stroke-width:0.35277775;font-style:normal;font-stretch:normal;text-anchor:start;text-align:start;font-variant-ligatures:normal;font-variant-caps:normal;font-variant-numeric:normal;font-feature-settings:normal;"
       id="text702">
      <tspan
         sodipodi:role="line"
         id="tspan1199"></tspan>
    </text>
    <text
       y="185.53069"
       x="-53.757477"
       transform="rotate(-63.033691)"
       style="font-variant:normal;font-weight:normal;font-size:2.8182358px;font-family:Helvetica;-inkscape-font-specification:'Helvetica, Normal';writing-mode:lr;fill:#231f20;fill-opacity:1;fill-rule:nonzero;stroke:none;stroke-width:0.35277775;font-style:normal;font-stretch:normal;text-anchor:start;text-align:start;font-variant-ligatures:normal;font-variant-caps:normal;font-variant-numeric:normal;font-feature-settings:normal;"
       id="text706">
      <tspan
         sodipodi:role="line"
         id="tspan1201"></tspan>
    </text>
    <text
       y="180.16321"
       x="-68.193306"
       transform="rotate(-68.143986)"
       style="font-variant:normal;font-weight:normal;font-size:2.8182358px;font-family:Helvetica;-inkscape-font-specification:'Helvetica, Normal';writing-mode:lr;fill:#231f20;fill-opacity:1;fill-rule:nonzero;stroke:none;stroke-width:0.35277775;font-style:normal;font-stretch:normal;text-anchor:start;text-align:start;font-variant-ligatures:normal;font-variant-caps:normal;font-variant-numeric:normal;font-feature-settings:normal;"
       id="text710">
      <tspan
         sodipodi:role="line"
         id="tspan1205"></tspan>
    </text>
    <text
       y="176.52171"
       x="-75.726028"
       transform="rotate(-71.064946)"
       style="font-variant:normal;font-weight:normal;font-size:2.8182358px;font-family:Helvetica;-inkscape-font-specification:'Helvetica, Normal';writing-mode:lr;fill:#231f20;fill-opacity:1;fill-rule:nonzero;stroke:none;stroke-width:0.35277775;font-style:normal;font-stretch:normal;text-anchor:start;text-align:start;font-variant-ligatures:normal;font-variant-caps:normal;font-variant-numeric:normal;font-feature-settings:normal;"
       id="text714">
      <tspan
         sodipodi:role="line"
         id="tspan1203"></tspan>
    </text>
    <text
       y="174.32127"
       x="-80.072586"
       transform="rotate(-72.68983)"
       style="font-variant:normal;font-weight:normal;font-size:2.8182358px;font-family:Helvetica;-inkscape-font-specification:'Helvetica, Normal';writing-mode:lr;fill:#231f20;fill-opacity:1;fill-rule:nonzero;stroke:none;stroke-width:0.35277778;font-style:normal;font-stretch:normal;text-anchor:start;text-align:start;font-variant-ligatures:normal;font-variant-caps:normal;font-variant-numeric:normal;font-feature-settings:normal;"
       id="text718">
      <tspan
         sodipodi:role="line"
         id="tspan1219"></tspan>
    </text>
    <text
       y="170.58878"
       x="-87.188896"
       transform="rotate(-75.262204)"
       style="font-variant:normal;font-weight:normal;font-size:2.8182358px;font-family:Helvetica;-inkscape-font-specification:'Helvetica, Normal';writing-mode:lr;fill:#231f20;fill-opacity:1;fill-rule:nonzero;stroke:none;stroke-width:0.35277775;font-style:normal;font-stretch:normal;text-anchor:start;text-align:start;font-variant-ligatures:normal;font-variant-caps:normal;font-variant-numeric:normal;font-feature-settings:normal;"
       id="text722">
      <tspan
         sodipodi:role="line"
         id="tspan1207"></tspan>
    </text>
    <text
       y="164.78995"
       x="-96.457741"
       transform="rotate(-78.908788)"
       style="font-variant:normal;font-weight:normal;font-size:2.8182358px;font-family:Helvetica;-inkscape-font-specification:'Helvetica, Normal';writing-mode:lr;fill:#231f20;fill-opacity:1;fill-rule:nonzero;stroke:none;stroke-width:0.35277775;font-style:normal;font-stretch:normal;text-anchor:start;text-align:start;font-variant-ligatures:normal;font-variant-caps:normal;font-variant-numeric:normal;font-feature-settings:normal;"
       id="text726">
      <tspan
         sodipodi:role="line"
         id="tspan1217"></tspan>
    </text>
    <text
       y="159.92969"
       x="-102.8587"
       transform="rotate(-81.718971)"
       style="font-variant:normal;font-weight:normal;font-size:2.8182358px;font-family:Helvetica;-inkscape-font-specification:'Helvetica, Normal';writing-mode:lr;fill:#231f20;fill-opacity:1;fill-rule:nonzero;stroke:none;stroke-width:0.35277775;font-style:normal;font-stretch:normal;text-anchor:start;text-align:start;font-variant-ligatures:normal;font-variant-caps:normal;font-variant-numeric:normal;font-feature-settings:normal;"
       id="text730">
      <tspan
         sodipodi:role="line"
         id="tspan1215"></tspan>
    </text>
    <text
       y="156.88692"
       x="-106.68889"
       transform="rotate(-83.38846)"
       style="font-variant:normal;font-weight:normal;font-size:2.8182358px;font-family:Helvetica;-inkscape-font-specification:'Helvetica, Normal';writing-mode:lr;fill:#231f20;fill-opacity:1;fill-rule:nonzero;stroke:none;stroke-width:0.35277775;font-style:normal;font-stretch:normal;text-anchor:start;text-align:start;font-variant-ligatures:normal;font-variant-caps:normal;font-variant-numeric:normal;font-feature-settings:normal;"
       id="text734">
      <tspan
         sodipodi:role="line"
         id="tspan1213"></tspan>
    </text>
    <text
       y="152.03979"
       x="-112.92037"
       transform="rotate(-85.929969)"
       style="font-variant:normal;font-weight:normal;font-size:2.81820048px;font-family:Helvetica;-inkscape-font-specification:'Helvetica, Normal';writing-mode:lr;fill:#231f20;fill-opacity:1;fill-rule:nonzero;stroke:none;stroke-width:0.35277775;font-style:normal;font-stretch:normal;text-anchor:start;text-align:start;font-variant-ligatures:normal;font-variant-caps:normal;font-variant-numeric:normal;font-feature-settings:normal;"
       id="text738">
      <tspan
         sodipodi:role="line"
         id="tspan1211"></tspan>
    </text>
    <text
       y="144.78627"
       x="-120.62535"
       transform="rotate(-89.511573)"
       style="font-variant:normal;font-weight:normal;font-size:2.8182358px;font-family:Helvetica;-inkscape-font-specification:'Helvetica, Normal';writing-mode:lr;fill:#231f20;fill-opacity:1;fill-rule:nonzero;stroke:none;stroke-width:0.35277778;font-style:normal;font-stretch:normal;text-anchor:start;text-align:start;font-variant-ligatures:normal;font-variant-caps:normal;font-variant-numeric:normal;font-feature-settings:normal;"
       id="text742">
      <tspan
         sodipodi:role="line"
         id="tspan1209"></tspan>
    </text>
    <text
       xml:space="preserve"
       style="font-style:normal;font-weight:normal;font-size:10.58333302px;line-height:1.25;font-family:sans-serif;letter-spacing:0px;word-spacing:0px;fill:#000000;fill-opacity:1;stroke:none;stroke-width:0.26458332"
       x="91.477951"
       y="83.669769"
       id="text1225"><tspan
         sodipodi:role="line"
         id="tspan1223"
         x="91.477951"
         y="93.325264"
         style="stroke-width:0.26458332" /></text>
    <text
       xml:space="preserve"
       style="font-style:normal;font-weight:normal;font-size:3.52777767px;line-height:1.25;font-family:sans-serif;letter-spacing:0px;word-spacing:0px;fill:#000000;fill-opacity:1;stroke:none;stroke-width:0.26458332"
       x="91.572441"
       y="82.630333"
       id="text1229"><tspan
         sodipodi:role="line"
         id="tspan1227"
         x="91.572441"
         y="85.848831"
         style="stroke-width:0.26458332" /></text>
    <text
       xml:space="preserve"
       style="font-style:normal;font-weight:normal;font-size:2.82222223px;line-height:1.25;font-family:sans-serif;letter-spacing:0px;word-spacing:0px;fill:#000000;fill-opacity:1;stroke:none;stroke-width:0.26458332"
       x="122.52287"
       y="17.326675"
       id="text1233"
       transform="rotate(34.966757)"><tspan
         sodipodi:role="line"
         id="tspan1231"
         x="122.52287"
         y="17.326675"
         style="stroke-width:0.26458332">palce</tspan></text>
    <flowRoot
       xml:space="preserve"
       id="flowRoot1235"
       style="fill:black;fill-opacity:1;stroke:none;font-family:sans-serif;font-style:normal;font-weight:normal;font-size:10.66666667px;line-height:1.25;letter-spacing:0px;word-spacing:0px"><flowRegion
         id="flowRegion1237"><rect
           id="rect1239"
           width="3.5714285"
           height="11.785714"
           x="56.42857"
           y="92.424995" /></flowRegion><flowPara
         id="flowPara1241"></flowPara></flowRoot>    <text
       xml:space="preserve"
       style="font-style:normal;font-weight:normal;font-size:2.82222223px;line-height:1.25;font-family:sans-serif;letter-spacing:0px;word-spacing:0px;fill:#000000;fill-opacity:1;stroke:none;stroke-width:0.26458332"
       x="118.23846"
       y="-14.283225"
       id="text1245"
       transform="rotate(48.09968)"><tspan
         sodipodi:role="line"
         id="tspan1243"
         x="118.23846"
         y="-14.283225"
         style="stroke-width:0.26458332">kostka</tspan></text>
    <text
       xml:space="preserve"
       style="font-style:normal;font-weight:normal;font-size:2.82222223px;line-height:1.25;font-family:sans-serif;letter-spacing:0px;word-spacing:0px;fill:#000000;fill-opacity:1;stroke:none;stroke-width:0.26458332"
       x="111.58689"
       y="-37.024212"
       id="text1249"
       transform="rotate(57.58254)"><tspan
         sodipodi:role="line"
         id="tspan1247"
         x="111.58689"
         y="-37.024212"
         style="stroke-width:0.26458332">kolano</tspan></text>
    <text
       xml:space="preserve"
       style="font-style:normal;font-weight:normal;font-size:2.82222223px;line-height:1.25;font-family:sans-serif;letter-spacing:0px;word-spacing:0px;fill:#000000;fill-opacity:1;stroke:none;stroke-width:0.26458332"
       x="101.69063"
       y="-58.056213"
       id="text1253"
       transform="rotate(66.862386)"><tspan
         sodipodi:role="line"
         id="tspan1251"
         x="101.69063"
         y="-58.056213"
         style="stroke-width:0.26458332">biodro</tspan></text>
    <text
       xml:space="preserve"
       style="font-style:normal;font-weight:normal;font-size:2.82222223px;line-height:1.25;font-family:sans-serif;letter-spacing:0px;word-spacing:0px;fill:#000000;fill-opacity:1;stroke:none;stroke-width:0.26458332"
       x="93.961563"
       y="-73.24305"
       id="text1257"
       transform="rotate(73.790832)"><tspan
         sodipodi:role="line"
         id="tspan1255"
         x="93.961563"
         y="-73.24305"
         style="stroke-width:0.26458332">tuw</tspan></text>
    <text
       xml:space="preserve"
       style="font-style:normal;font-weight:normal;font-size:2.82222223px;line-height:1.25;font-family:sans-serif;letter-spacing:0px;word-spacing:0px;fill:#000000;fill-opacity:1;stroke:none;stroke-width:0.26458332"
       x="86.680016"
       y="-84.769073"
       id="text1261"
       transform="rotate(79.058545)"><tspan
         sodipodi:role="line"
         id="tspan1259"
         x="86.680016"
         y="-84.769073"
         style="stroke-width:0.26458332">bark</tspan></text>
    <text
       xml:space="preserve"
       style="font-style:normal;font-weight:normal;font-size:2.82222223px;line-height:1.25;font-family:sans-serif;letter-spacing:0px;word-spacing:0px;fill:#000000;fill-opacity:1;stroke:none;stroke-width:0.26458332"
       x="55.857887"
       y="-111.42917"
       id="text1265"
       transform="rotate(97.31566)"><tspan
         sodipodi:role="line"
         id="tspan1263"
         x="55.857887"
         y="-111.42917"
         style="stroke-width:0.26458332">okie</tspan></text>
    <text
       xml:space="preserve"
       style="font-style:normal;font-weight:normal;font-size:2.82222223px;line-height:1.25;font-family:sans-serif;letter-spacing:0px;word-spacing:0px;fill:#000000;fill-opacity:1;stroke:none;stroke-width:0.26458332"
       x="52.796402"
       y="-116.62704"
       id="text1269"
       transform="rotate(99.140142)"><tspan
         sodipodi:role="line"
         id="tspan1267"
         x="52.796402"
         y="-116.62704"
         style="stroke-width:0.26458332">nadgarstek</tspan></text>
    <text
       xml:space="preserve"
       style="font-style:normal;font-weight:normal;font-size:2.82222223px;line-height:1.25;font-family:sans-serif;letter-spacing:0px;word-spacing:0px;fill:#000000;fill-opacity:1;stroke:none;stroke-width:0.26458332"
       x="-28.196009"
       y="136.95886"
       id="text1273"
       transform="rotate(-66.281521)"><tspan
         sodipodi:role="line"
         id="tspan1271"
         x="-28.196009"
         y="136.95886"
         style="stroke-width:0.26458332">do</tspan></text>
    <text
       xml:space="preserve"
       style="font-style:normal;font-weight:normal;font-size:2.82222223px;line-height:1.25;font-family:sans-serif;letter-spacing:0px;word-spacing:0px;fill:#000000;fill-opacity:1;stroke:none;stroke-width:0.26458332"
       x="23.396254"
       y="145.15089"
       id="text1277"
       transform="rotate(-45.443374)"><tspan
         sodipodi:role="line"
         id="tspan1275"
         x="23.396254"
         y="145.15089"
         style="stroke-width:0.26458332">may</tspan></text>
    <text
       xml:space="preserve"
       style="font-style:normal;font-weight:normal;font-size:2.82222223px;line-height:1.25;font-family:sans-serif;letter-spacing:0px;word-spacing:0px;fill:#000000;fill-opacity:1;stroke:none;stroke-width:0.26458332"
       x="20.131962"
       y="147.5054"
       id="text1281"
       transform="rotate(-44.151579)"><tspan
         sodipodi:role="line"
         id="tspan1279"
         x="20.131962"
         y="147.5054"
         style="stroke-width:0.26458332">serdeczny</tspan></text>
    <text
       xml:space="preserve"
       style="font-style:normal;font-weight:normal;font-size:2.82222223px;line-height:1.25;font-family:sans-serif;letter-spacing:0px;word-spacing:0px;fill:#000000;fill-opacity:1;stroke:none;stroke-width:0.26458332"
       x="21.061146"
       y="150.31631"
       id="text1285"
       transform="rotate(-44.077404)"><tspan
         sodipodi:role="line"
         id="tspan1283"
         x="21.061146"
         y="150.31631"
         style="stroke-width:0.26458332">rodkowy</tspan></text>
    <text
       xml:space="preserve"
       style="font-style:normal;font-weight:normal;font-size:2.82222223px;line-height:1.25;font-family:sans-serif;letter-spacing:0px;word-spacing:0px;fill:#000000;fill-opacity:1;stroke:none;stroke-width:0.26458332"
       x="18.689043"
       y="153.25455"
       id="text1289"
       transform="rotate(-44.183023)"><tspan
         sodipodi:role="line"
         id="tspan1287"
         x="18.689043"
         y="153.25455"
         style="stroke-width:0.26458332">wskazujcy</tspan></text>
    <text
       xml:space="preserve"
       style="font-style:normal;font-weight:normal;font-size:2.82222223px;line-height:1.25;font-family:sans-serif;letter-spacing:0px;word-spacing:0px;fill:#000000;fill-opacity:1;stroke:none;stroke-width:0.26458332"
       x="37.002415"
       y="154.25122"
       id="text1293"
       transform="rotate(-40.62363)"><tspan
         sodipodi:role="line"
         id="tspan1291"
         x="37.002415"
         y="154.25122"
         style="stroke-width:0.26458332">kciuk</tspan></text>
    <text
       xml:space="preserve"
       style="font-style:normal;font-weight:normal;font-size:2.82222223px;line-height:1.25;font-family:sans-serif;letter-spacing:0px;word-spacing:0px;fill:#000000;fill-opacity:1;stroke:none;stroke-width:0.26458332"
       x="48.924583"
       y="152.76398"
       id="text1297"
       transform="rotate(-36.051084)"><tspan
         sodipodi:role="line"
         id="tspan1295"
         x="48.924583"
         y="152.76398"
         style="stroke-width:0.26458332">szyja</tspan></text>
    <text
       xml:space="preserve"
       style="font-style:normal;font-weight:normal;font-size:2.82222223px;line-height:1.25;font-family:sans-serif;letter-spacing:0px;word-spacing:0px;fill:#000000;fill-opacity:1;stroke:none;stroke-width:0.26458332"
       x="55.659958"
       y="153.02979"
       id="text1301"
       transform="rotate(-33.58216)"><tspan
         sodipodi:role="line"
         id="tspan1299"
         x="55.659958"
         y="153.02979"
         style="stroke-width:0.26458332">brew</tspan></text>
    <text
       xml:space="preserve"
       style="font-style:normal;font-weight:normal;font-size:2.82222223px;line-height:1.25;font-family:sans-serif;letter-spacing:0px;word-spacing:0px;fill:#000000;fill-opacity:1;stroke:none;stroke-width:0.26458332"
       x="51.631184"
       y="146.25475"
       id="text1305"
       transform="rotate(-25.769482)"><tspan
         sodipodi:role="line"
         id="tspan1303"
         x="51.631184"
         y="146.25475"
         style="stroke-width:0.26458332">powieka i gaka oczna</tspan></text>
    <text
       xml:space="preserve"
       style="font-style:normal;font-weight:normal;font-size:2.82222223px;line-height:1.25;font-family:sans-serif;letter-spacing:0px;word-spacing:0px;fill:#000000;fill-opacity:1;stroke:none;stroke-width:0.26458332"
       x="90.761215"
       y="141.29654"
       id="text1309"
       transform="rotate(-19.313689)"><tspan
         sodipodi:role="line"
         id="tspan1307"
         x="90.761215"
         y="141.29654"
         style="stroke-width:0.26458332">twarz</tspan></text>
    <text
       xml:space="preserve"
       style="font-style:normal;font-weight:normal;font-size:2.82222223px;line-height:1.25;font-family:sans-serif;letter-spacing:0px;word-spacing:0px;fill:#000000;fill-opacity:1;stroke:none;stroke-width:0.26458332"
       x="107.73853"
       y="136.18575"
       id="text1313"
       transform="rotate(-12.666297)"><tspan
         sodipodi:role="line"
         id="tspan1311"
         x="107.73853"
         y="136.18575"
         style="stroke-width:0.26458332">usta</tspan></text>
    <text
       xml:space="preserve"
       style="font-style:normal;font-weight:normal;font-size:2.82222223px;line-height:1.25;font-family:sans-serif;letter-spacing:0px;word-spacing:0px;fill:#000000;fill-opacity:1;stroke:none;stroke-width:0.26458332"
       x="148.9977"
       y="90.970261"
       id="text1317"
       transform="rotate(11.300979)"><tspan
         sodipodi:role="line"
         id="tspan1315"
         x="148.9977"
         y="90.970261"
         style="stroke-width:0.26458332">szczka</tspan></text>
    <text
       xml:space="preserve"
       style="font-style:normal;font-weight:normal;font-size:2.82222223px;line-height:1.25;font-family:sans-serif;letter-spacing:0px;word-spacing:0px;fill:#000000;fill-opacity:1;stroke:none;stroke-width:0.26458332"
       x="170.07826"
       y="53.904228"
       id="text1321"
       transform="rotate(25.302316)"><tspan
         sodipodi:role="line"
         id="tspan1319"
         x="170.07826"
         y="53.904228"
         style="stroke-width:0.26458332">jzyk</tspan></text>
    <text
       xml:space="preserve"
       style="font-style:normal;font-weight:normal;font-size:2.82222223px;line-height:1.25;font-family:sans-serif;letter-spacing:0px;word-spacing:0px;fill:#000000;fill-opacity:1;stroke:none;stroke-width:0.26458332"
       x="161.3701"
       y="45.496399"
       id="text1325"
       transform="rotate(29.272075)"><tspan
         sodipodi:role="line"
         id="tspan1323"
         x="161.3701"
         y="45.496399"
         style="stroke-width:0.26458332">poykanie</tspan></text>
    <text
       xml:space="preserve"
       style="font-style:normal;font-weight:normal;font-size:2.82222223px;line-height:1.25;font-family:sans-serif;letter-spacing:0px;word-spacing:0px;fill:#000000;fill-opacity:1;stroke:none;stroke-width:0.26458332"
       x="25.02825"
       y="186.35425"
       id="text1329"
       transform="rotate(-36.258321)"><tspan
         sodipodi:role="line"
         id="tspan1327"
         x="25.02825"
         y="186.35425"
         style="stroke-width:0.26458332">ucie</tspan></text>
    <path
       style="fill:none;stroke:#000000;stroke-width:0.26458332px;stroke-linecap:butt;stroke-linejoin:miter;stroke-opacity:1"
       d="m 175.50103,121.85277 c 1.64198,-8.49781 1.28267,-22.287972 -0.34435,-27.661975"
       id="path1383"
       inkscape:connector-curvature="0"
       sodipodi:nodetypes="cc" />
    <text
       xml:space="preserve"
       style="font-style:normal;font-weight:normal;font-size:2.11666679px;line-height:1.25;font-family:sans-serif;letter-spacing:0px;word-spacing:0px;fill:#000000;fill-opacity:1;stroke:none;stroke-width:0.26458332"
       id="text1493"
       transform="rotate(-5.1165402,187.26938,456.28408)"><textPath
         xlink:href="#path1383"
         id="textPath1495"><tspan
   style="font-size:2.11666679px;stroke-width:0.26458332"
   id="tspan1491">powstawanie gosu</tspan></textPath></text>
    <path
       style="fill:none;stroke:#000000;stroke-width:0.26458332px;stroke-linecap:butt;stroke-linejoin:miter;stroke-opacity:1"
       d="m 194.17135,127.72839 c 2.37697,-6.62692 -1.0579,-19.76629 -6.22428,-25.18974"
       id="path1383-4"
       inkscape:connector-curvature="0"
       sodipodi:nodetypes="cc" />
    <text
       xml:space="preserve"
       style="font-style:normal;font-weight:normal;font-size:2.82222223px;line-height:1.25;font-family:sans-serif;letter-spacing:0px;word-spacing:0px;fill:#000000;fill-opacity:1;stroke:none;stroke-width:0.26458332"
       id="text1516"
       transform="rotate(15.983934,149.89411,-62.026536)"><textPath
         xlink:href="#path1383-4"
         id="textPath1518"
         style="font-size:2.116667px">wydzielanie liny</textPath></text>
  </g>
</svg>
